<svg id="svg" version="1.1" xmlns="http://www.w3.org/2000/svg" xmlns:xlink="http://www.w3.org/1999/xlink" width="400" height="400" viewBox="0, 0, 400,400"><g id="svgg"><path id="path0" d="M209.600 15.520 C 209.600 15.861,208.448 16.000,205.614 16.000 C 202.074 16.000,201.582 16.087,201.212 16.778 C 200.770 17.604,200.787 200.120,201.229 200.562 C 201.355 200.688,242.485 200.838,292.629 200.896 L 383.800 201.000 383.535 192.400 C 383.141 179.628,381.488 166.227,379.192 157.200 C 378.941 156.210,378.640 154.724,378.525 153.897 C 378.410 153.071,378.155 152.295,377.958 152.174 C 377.761 152.052,377.600 151.571,377.600 151.105 C 377.600 150.204,376.935 147.861,376.351 146.705 C 376.158 146.323,376.000 145.569,376.000 145.029 C 376.000 144.489,375.820 143.936,375.600 143.800 C 375.380 143.664,375.200 143.124,375.200 142.600 C 375.200 142.076,375.020 141.536,374.800 141.400 C 374.580 141.264,374.400 140.724,374.400 140.200 C 374.400 139.676,374.220 139.136,374.000 139.000 C 373.780 138.864,373.600 138.401,373.600 137.971 C 373.600 137.541,373.433 136.877,373.229 136.495 C 373.025 136.113,372.214 134.129,371.425 132.086 C 369.883 128.091,368.774 125.501,367.563 123.062 C 367.144 122.216,366.800 121.271,366.800 120.962 C 366.800 120.653,366.620 120.400,366.400 120.400 C 366.180 120.400,366.000 120.040,366.000 119.600 C 366.000 119.160,365.820 118.800,365.600 118.800 C 365.380 118.800,365.200 118.547,365.200 118.238 C 365.200 117.572,363.532 114.259,363.100 114.067 C 362.935 113.993,362.800 113.588,362.800 113.167 C 362.800 112.745,362.620 112.400,362.400 112.400 C 362.180 112.400,362.000 112.040,362.000 111.600 C 362.000 111.160,361.865 110.799,361.700 110.797 C 361.535 110.795,361.202 110.390,360.960 109.897 C 359.778 107.489,358.570 105.387,358.300 105.267 C 358.135 105.193,358.000 104.788,358.000 104.367 C 358.000 103.945,357.820 103.600,357.600 103.600 C 357.380 103.600,357.200 103.364,357.200 103.075 C 357.200 102.787,356.840 102.164,356.400 101.692 C 355.960 101.220,355.600 100.715,355.600 100.569 C 355.600 100.251,351.266 94.020,350.524 93.271 C 350.236 92.981,350.000 92.584,350.000 92.390 C 350.000 92.195,349.550 91.586,349.000 91.036 C 348.450 90.486,348.000 89.830,348.000 89.579 C 348.000 89.327,347.460 88.617,346.800 88.000 C 346.140 87.383,345.600 86.663,345.600 86.400 C 345.600 86.137,345.098 85.444,344.485 84.860 C 343.871 84.277,342.930 83.170,342.393 82.400 C 341.857 81.630,341.008 80.587,340.509 80.082 C 340.009 79.577,339.600 79.010,339.600 78.822 C 339.600 78.341,323.740 62.447,321.812 60.995 C 320.939 60.338,319.522 59.125,318.664 58.300 C 317.806 57.475,316.927 56.800,316.712 56.800 C 316.497 56.800,315.817 56.260,315.200 55.600 C 314.583 54.940,313.881 54.400,313.640 54.400 C 313.398 54.400,313.200 54.220,313.200 54.000 C 313.200 53.780,313.002 53.600,312.760 53.600 C 312.519 53.600,311.817 53.060,311.200 52.400 C 310.583 51.740,309.831 51.200,309.528 51.200 C 309.225 51.200,308.717 50.840,308.400 50.400 C 308.083 49.960,307.593 49.600,307.312 49.600 C 307.030 49.600,306.800 49.420,306.800 49.200 C 306.800 48.980,306.545 48.800,306.233 48.800 C 305.922 48.800,305.607 48.664,305.533 48.497 C 305.323 48.018,302.126 45.600,301.704 45.600 C 301.495 45.600,300.998 45.240,300.600 44.800 C 300.202 44.360,299.711 44.000,299.509 44.000 C 299.308 44.000,298.871 43.728,298.539 43.396 C 298.207 43.064,297.770 42.895,297.568 43.020 C 297.365 43.145,297.200 43.076,297.200 42.866 C 297.200 42.657,296.921 42.378,296.579 42.247 C 296.200 42.102,296.061 42.174,296.221 42.434 C 296.366 42.668,296.105 42.622,295.642 42.333 C 295.179 42.044,294.800 41.671,294.800 41.504 C 294.800 41.337,294.440 41.200,294.000 41.200 C 293.560 41.200,293.200 41.020,293.200 40.800 C 293.200 40.580,292.852 40.400,292.427 40.400 C 292.002 40.400,291.540 40.040,291.400 39.600 C 291.260 39.160,290.798 38.800,290.373 38.800 C 289.948 38.800,289.600 38.620,289.600 38.400 C 289.600 38.180,289.330 38.000,289.000 38.000 C 288.670 38.000,288.400 37.820,288.400 37.600 C 288.400 37.380,288.055 37.200,287.633 37.200 C 287.212 37.200,286.804 37.012,286.727 36.782 C 286.651 36.552,286.194 36.335,285.711 36.298 C 285.229 36.262,284.915 36.152,285.013 36.053 C 285.112 35.955,284.249 35.436,283.096 34.900 C 281.943 34.364,280.687 33.763,280.305 33.563 C 279.923 33.363,279.338 33.200,279.005 33.200 C 278.672 33.200,278.400 33.020,278.400 32.800 C 278.400 32.580,278.040 32.400,277.600 32.400 C 277.160 32.400,276.800 32.220,276.800 32.000 C 276.800 31.780,276.320 31.600,275.733 31.600 C 275.147 31.600,274.784 31.483,274.927 31.340 C 275.215 31.052,274.033 30.029,273.400 30.019 C 273.180 30.015,273.270 30.187,273.600 30.400 C 274.113 30.731,274.098 30.789,273.500 30.794 C 273.115 30.797,272.800 30.620,272.800 30.400 C 272.800 30.180,272.395 29.997,271.900 29.994 C 271.172 29.989,271.115 29.914,271.600 29.600 C 272.233 29.191,271.521 29.014,269.900 29.179 C 269.515 29.218,269.200 29.048,269.200 28.802 C 269.200 28.555,269.036 28.454,268.836 28.578 C 268.195 28.974,267.042 28.348,267.666 27.942 C 268.011 27.718,267.704 27.631,266.800 27.698 C 266.030 27.754,265.430 27.619,265.467 27.398 C 265.504 27.177,264.964 26.997,264.267 26.998 C 263.530 26.999,263.036 26.808,263.086 26.541 C 263.137 26.270,262.853 26.166,262.392 26.286 C 261.250 26.585,260.039 26.070,260.790 25.606 C 261.142 25.389,260.718 25.341,259.679 25.480 C 258.372 25.656,258.000 25.576,258.000 25.122 C 258.000 24.701,257.665 24.588,256.800 24.715 C 256.080 24.820,255.600 24.713,255.600 24.445 C 255.600 24.200,255.060 24.000,254.400 24.000 C 253.740 24.000,253.200 23.820,253.200 23.600 C 253.200 23.380,252.570 23.200,251.800 23.200 C 251.030 23.200,250.400 23.020,250.400 22.800 C 250.400 22.580,249.770 22.400,249.000 22.400 C 248.230 22.400,247.600 22.220,247.600 22.000 C 247.600 21.780,246.970 21.600,246.200 21.600 C 245.430 21.600,244.800 21.420,244.800 21.200 C 244.800 20.980,243.990 20.800,243.000 20.800 C 242.010 20.800,241.200 20.620,241.200 20.400 C 241.200 20.180,240.480 20.000,239.600 20.000 C 238.720 20.000,238.000 19.820,238.000 19.600 C 238.000 19.380,237.111 19.200,236.024 19.200 C 234.937 19.200,233.936 19.020,233.800 18.800 C 233.664 18.580,232.573 18.400,231.376 18.400 C 230.179 18.400,229.200 18.220,229.200 18.000 C 229.200 17.766,227.829 17.597,225.900 17.594 C 223.622 17.590,222.786 17.468,223.200 17.200 C 223.607 16.937,222.353 16.810,219.300 16.806 C 216.571 16.802,214.800 16.643,214.800 16.400 C 214.800 16.180,213.846 16.000,212.680 16.000 C 211.514 16.000,210.344 15.784,210.080 15.520 C 209.707 15.147,209.600 15.147,209.600 15.520 M270.499 61.998 C 278.935 64.603,280.919 69.335,281.124 87.336 C 281.307 103.466,281.821 101.855,276.415 102.078 C 271.361 102.286,270.269 102.820,270.481 104.980 C 270.661 106.824,272.536 107.599,276.820 107.599 C 280.764 107.600,281.200 107.862,281.200 110.231 C 281.200 112.476,280.819 112.683,276.358 112.871 C 271.872 113.059,270.400 113.720,270.400 115.547 C 270.400 117.607,271.584 118.183,276.141 118.338 C 281.584 118.523,281.200 117.803,281.200 127.820 C 281.200 136.174,281.218 136.356,282.100 137.073 C 299.833 151.487,291.582 180.231,268.842 183.259 C 244.733 186.469,229.645 156.151,246.860 139.087 L 250.000 135.975 250.014 106.487 C 250.029 74.397,250.033 74.332,252.303 69.482 C 255.523 62.602,262.784 59.615,270.499 61.998 M261.532 68.811 C 259.942 69.651,258.911 70.901,257.746 73.400 C 257.044 74.907,256.988 76.845,256.800 106.600 L 256.600 138.200 255.717 139.620 C 255.231 140.401,254.031 141.617,253.050 142.321 C 247.809 146.085,244.197 156.207,247.481 157.928 C 249.046 158.749,250.886 156.693,251.731 153.178 C 252.200 151.222,254.233 148.812,258.193 145.515 C 264.009 140.672,263.590 142.840,263.538 117.885 C 263.515 106.492,263.570 97.096,263.661 97.005 C 263.752 96.914,266.161 96.696,269.013 96.520 L 274.200 96.200 274.324 86.800 C 274.461 76.391,274.200 74.302,272.403 71.470 C 270.288 68.134,265.179 66.884,261.532 68.811 " stroke="none" fill="#ee4333" fill-rule="evenodd"></path><path id="path1" d="M190.000 15.600 C 190.000 15.825,188.875 16.000,187.424 16.000 C 186.007 16.000,184.736 16.180,184.600 16.400 C 184.463 16.621,182.655 16.800,180.553 16.800 C 178.121 16.800,176.842 16.944,177.000 17.200 C 177.156 17.452,176.204 17.600,174.424 17.600 C 172.808 17.600,171.600 17.771,171.600 18.000 C 171.600 18.223,170.525 18.400,169.176 18.400 C 167.663 18.400,166.846 18.550,167.000 18.800 C 167.152 19.047,166.471 19.200,165.224 19.200 C 164.111 19.200,163.200 19.380,163.200 19.600 C 163.200 19.820,162.390 20.000,161.400 20.000 C 160.410 20.000,159.600 20.180,159.600 20.400 C 159.600 20.620,158.880 20.800,158.000 20.800 C 157.120 20.800,156.400 20.980,156.400 21.200 C 156.400 21.420,155.770 21.600,155.000 21.600 C 154.230 21.600,153.600 21.780,153.600 22.000 C 153.600 22.220,152.981 22.400,152.224 22.400 C 151.467 22.400,150.736 22.580,150.600 22.800 C 150.464 23.020,149.823 23.200,149.176 23.200 C 148.529 23.200,148.000 23.380,148.000 23.600 C 148.000 23.820,147.471 24.000,146.824 24.000 C 146.177 24.000,145.536 24.180,145.400 24.400 C 145.264 24.620,144.623 24.800,143.976 24.800 C 143.329 24.800,142.800 24.980,142.800 25.200 C 142.800 25.420,142.260 25.600,141.600 25.600 C 140.940 25.600,140.400 25.780,140.400 26.000 C 140.400 26.220,139.961 26.400,139.424 26.400 C 138.887 26.400,138.336 26.580,138.200 26.800 C 138.064 27.020,137.601 27.200,137.171 27.200 C 136.741 27.200,136.077 27.359,135.695 27.553 C 135.065 27.874,134.077 28.300,131.800 29.236 C 126.992 31.211,125.939 31.600,125.412 31.600 C 125.075 31.600,124.800 31.780,124.800 32.000 C 124.800 32.220,124.440 32.400,124.000 32.400 C 123.560 32.400,123.200 32.580,123.200 32.800 C 123.200 33.020,122.750 33.200,122.200 33.200 C 121.650 33.200,121.200 33.380,121.200 33.600 C 121.200 33.820,120.840 34.000,120.400 34.000 C 119.960 34.000,119.600 34.180,119.600 34.400 C 119.600 34.620,119.240 34.800,118.800 34.800 C 118.360 34.800,118.000 34.980,118.000 35.200 C 118.000 35.420,117.640 35.600,117.200 35.600 C 116.760 35.600,116.400 35.780,116.400 36.000 C 116.400 36.220,116.130 36.400,115.800 36.400 C 115.470 36.400,115.200 36.536,115.200 36.702 C 115.200 36.869,114.615 37.259,113.900 37.570 C 113.185 37.881,112.510 38.240,112.400 38.368 C 112.290 38.496,111.480 38.974,110.600 39.430 C 108.531 40.504,107.052 41.348,106.800 41.600 C 106.404 41.996,104.185 43.254,103.500 43.471 C 103.115 43.593,102.800 43.852,102.800 44.047 C 102.800 44.241,102.606 44.400,102.368 44.400 C 102.131 44.400,99.986 45.734,97.601 47.364 C 91.781 51.342,90.802 52.046,89.619 53.100 C 89.063 53.595,88.490 54.000,88.346 54.000 C 88.202 54.000,87.552 54.495,86.902 55.100 C 86.251 55.705,85.128 56.650,84.406 57.200 C 82.983 58.284,82.690 58.530,78.800 61.915 C 72.770 67.162,61.002 79.415,57.200 84.406 C 56.650 85.128,55.705 86.251,55.100 86.902 C 54.495 87.552,54.000 88.202,54.000 88.346 C 54.000 88.490,53.590 89.056,53.089 89.604 C 52.587 90.152,51.738 91.230,51.202 92.000 C 50.665 92.770,49.995 93.638,49.713 93.929 C 49.431 94.219,49.200 94.611,49.200 94.800 C 49.200 94.989,48.975 95.381,48.700 95.671 C 47.853 96.567,44.400 101.966,44.400 102.395 C 44.400 102.618,44.241 102.800,44.047 102.800 C 43.852 102.800,43.593 103.115,43.471 103.500 C 43.254 104.185,41.996 106.404,41.600 106.800 C 41.204 107.196,39.946 109.415,39.729 110.100 C 39.607 110.485,39.348 110.800,39.153 110.800 C 38.959 110.800,38.800 111.160,38.800 111.600 C 38.800 112.040,38.620 112.400,38.400 112.400 C 38.180 112.400,38.000 112.670,38.000 113.000 C 38.000 113.330,37.820 113.600,37.600 113.600 C 37.380 113.600,37.200 113.870,37.200 114.200 C 37.200 114.530,37.020 114.800,36.800 114.800 C 36.580 114.800,36.400 115.160,36.400 115.600 C 36.400 116.040,36.220 116.400,36.000 116.400 C 35.780 116.400,35.600 116.760,35.600 117.200 C 35.600 117.640,35.420 118.000,35.200 118.000 C 34.980 118.000,34.800 118.360,34.800 118.800 C 34.800 119.240,34.620 119.600,34.400 119.600 C 34.180 119.600,34.000 119.960,34.000 120.400 C 34.000 120.840,33.820 121.200,33.600 121.200 C 33.380 121.200,33.200 121.650,33.200 122.200 C 33.200 122.750,33.020 123.200,32.800 123.200 C 32.580 123.200,32.400 123.453,32.400 123.762 C 32.400 124.071,32.014 125.106,31.543 126.062 C 31.072 127.018,30.554 128.160,30.391 128.600 C 30.026 129.588,28.842 132.655,28.305 134.000 C 28.086 134.550,27.748 135.313,27.553 135.695 C 27.359 136.077,27.200 136.752,27.200 137.195 C 27.200 137.638,27.020 138.000,26.800 138.000 C 26.580 138.000,26.400 138.540,26.400 139.200 C 26.400 139.860,26.220 140.400,26.000 140.400 C 25.780 140.400,25.600 140.940,25.600 141.600 C 25.600 142.260,25.420 142.800,25.200 142.800 C 24.980 142.800,24.800 143.340,24.800 144.000 C 24.800 144.660,24.620 145.200,24.400 145.200 C 24.180 145.200,24.000 145.830,24.000 146.600 C 24.000 147.370,23.820 148.000,23.600 148.000 C 23.380 148.000,23.200 148.540,23.200 149.200 C 23.200 149.860,23.020 150.400,22.800 150.400 C 22.580 150.400,22.400 151.120,22.400 152.000 C 22.400 152.880,22.220 153.600,22.000 153.600 C 21.780 153.600,21.600 154.230,21.600 155.000 C 21.600 155.770,21.420 156.400,21.200 156.400 C 20.980 156.400,20.800 157.120,20.800 158.000 C 20.800 158.880,20.620 159.600,20.400 159.600 C 20.180 159.600,20.000 160.410,20.000 161.400 C 20.000 162.390,19.820 163.200,19.600 163.200 C 19.380 163.200,19.200 164.100,19.200 165.200 C 19.200 166.300,19.020 167.200,18.800 167.200 C 18.580 167.200,18.400 168.179,18.400 169.376 C 18.400 170.573,18.220 171.664,18.000 171.800 C 17.780 171.936,17.600 173.171,17.600 174.544 C 17.600 175.917,17.432 177.211,17.227 177.420 C 16.783 177.873,16.461 182.644,16.168 193.101 L 15.952 200.802 108.076 200.701 L 200.200 200.600 200.200 108.400 L 200.200 16.200 195.284 16.088 C 192.242 16.018,190.459 15.827,190.608 15.588 C 190.739 15.374,190.657 15.200,190.424 15.200 C 190.191 15.200,190.000 15.380,190.000 15.600 M91.294 78.442 C 91.927 79.293,92.218 81.048,92.883 88.042 C 93.331 92.749,93.822 96.738,93.975 96.906 C 94.128 97.075,97.571 97.512,101.626 97.877 L 109.000 98.541 120.800 97.467 C 133.572 96.305,142.710 96.121,152.969 96.818 C 160.045 97.300,159.307 97.966,159.964 90.502 C 161.069 77.941,161.321 77.200,164.488 77.200 C 168.784 77.200,168.781 76.800,164.803 117.000 C 164.585 119.200,164.229 122.980,164.012 125.400 C 163.795 127.820,163.429 131.780,163.198 134.200 C 162.966 136.620,162.611 140.490,162.407 142.800 C 162.096 146.313,160.711 161.121,159.750 171.200 C 159.132 177.686,161.853 177.200,126.142 177.200 L 95.921 177.200 94.820 176.021 C 93.928 175.067,93.668 174.325,93.452 172.121 C 93.306 170.625,93.007 167.600,92.788 165.400 C 92.570 163.200,92.121 158.340,91.791 154.600 C 91.203 147.930,89.599 130.900,88.815 123.000 C 87.040 105.122,85.200 84.048,85.200 81.595 C 85.200 77.452,89.070 75.450,91.294 78.442 M94.538 103.018 C 94.407 103.358,94.499 105.563,94.742 107.918 C 94.985 110.273,95.368 114.270,95.593 116.800 C 95.818 119.330,96.269 124.280,96.595 127.800 C 96.921 131.320,97.550 138.160,97.992 143.000 C 98.434 147.840,98.979 153.600,99.204 155.800 C 99.429 158.000,99.786 161.926,99.998 164.525 C 100.211 167.124,100.488 169.419,100.616 169.625 C 100.756 169.852,111.022 170.000,126.592 170.000 L 152.336 170.000 152.558 168.900 C 152.820 167.606,153.523 160.399,155.184 142.000 C 155.849 134.630,156.570 126.710,156.786 124.400 C 157.001 122.090,157.361 118.220,157.585 115.800 C 157.810 113.380,158.176 109.539,158.399 107.265 C 158.622 104.991,158.703 102.966,158.578 102.765 C 158.137 102.052,94.813 102.302,94.538 103.018 M147.120 110.480 C 147.803 111.163,147.714 113.407,146.979 114.017 C 146.286 114.593,137.411 114.797,135.500 114.282 C 134.546 114.024,134.400 113.784,134.400 112.472 C 134.400 110.116,134.709 110.000,141.000 110.000 C 144.853 110.000,146.792 110.152,147.120 110.480 M146.574 119.590 C 147.717 120.025,148.086 122.954,147.120 123.920 C 146.104 124.936,128.160 124.564,127.423 123.511 C 126.573 122.298,126.641 120.959,127.600 120.000 C 128.496 119.104,144.392 118.761,146.574 119.590 M146.711 130.223 C 147.702 130.917,147.943 133.097,147.120 133.920 C 146.451 134.589,135.549 134.589,134.880 133.920 C 134.187 133.227,134.290 131.184,135.062 130.331 C 135.974 129.324,145.303 129.236,146.711 130.223 M146.971 140.229 C 147.817 141.074,147.775 143.179,146.900 143.843 C 146.039 144.497,136.349 144.615,135.174 143.986 C 134.280 143.508,134.082 140.878,134.880 140.080 C 135.666 139.294,146.166 139.424,146.971 140.229 M147.177 150.172 C 148.013 151.180,147.535 153.714,146.400 154.285 C 145.193 154.892,129.806 155.010,128.263 154.424 C 127.087 153.977,126.580 152.230,127.174 150.669 L 127.580 149.600 137.141 149.600 C 144.944 149.600,146.789 149.705,147.177 150.172 M146.900 160.157 C 147.775 160.821,147.817 162.926,146.971 163.771 C 146.166 164.576,135.666 164.706,134.880 163.920 C 134.128 163.168,134.278 160.511,135.100 160.032 C 136.179 159.404,146.045 159.508,146.900 160.157 " stroke="none" fill="#05a9f2" fill-rule="evenodd"></path><path id="path2" d="M78.770 59.853 L 77.800 60.905 78.785 60.353 C 80.314 59.494,80.991 58.800,80.298 58.800 C 79.991 58.800,79.303 59.274,78.770 59.853 M319.671 59.300 C 319.962 59.575,320.920 60.338,321.800 60.995 C 323.718 62.429,339.600 78.334,339.600 78.822 C 339.600 79.010,340.009 79.577,340.509 80.082 C 341.008 80.587,341.857 81.630,342.393 82.400 C 342.930 83.170,343.871 84.277,344.485 84.860 C 345.098 85.444,345.600 86.137,345.600 86.400 C 345.600 86.663,346.140 87.383,346.800 88.000 C 347.460 88.617,348.000 89.327,348.000 89.579 C 348.000 89.830,348.450 90.486,349.000 91.036 C 349.550 91.586,350.000 92.195,350.000 92.390 C 350.000 92.584,350.236 92.981,350.524 93.271 C 351.266 94.020,355.600 100.251,355.600 100.569 C 355.600 100.715,355.960 101.220,356.400 101.692 C 356.840 102.164,357.200 102.787,357.200 103.075 C 357.200 103.364,357.380 103.600,357.600 103.600 C 357.820 103.600,358.000 103.945,358.000 104.367 C 358.000 104.788,358.135 105.193,358.300 105.267 C 358.570 105.387,359.778 107.489,360.960 109.897 C 361.202 110.390,361.535 110.795,361.700 110.797 C 361.865 110.799,362.000 111.160,362.000 111.600 C 362.000 112.040,362.180 112.400,362.400 112.400 C 362.620 112.400,362.800 112.745,362.800 113.167 C 362.800 113.588,362.935 113.993,363.100 114.067 C 363.532 114.259,365.200 117.572,365.200 118.238 C 365.200 118.547,365.380 118.800,365.600 118.800 C 365.820 118.800,366.000 119.160,366.000 119.600 C 366.000 120.040,366.180 120.400,366.400 120.400 C 366.620 120.400,366.800 120.653,366.800 120.962 C 366.800 121.271,367.144 122.216,367.563 123.062 C 368.774 125.501,369.883 128.091,371.425 132.086 C 372.214 134.129,373.025 136.113,373.229 136.495 C 373.433 136.877,373.600 137.541,373.600 137.971 C 373.600 138.401,373.780 138.864,374.000 139.000 C 374.220 139.136,374.400 139.676,374.400 140.200 C 374.400 140.724,374.580 141.264,374.800 141.400 C 375.020 141.536,375.200 142.076,375.200 142.600 C 375.200 143.124,375.380 143.664,375.600 143.800 C 375.820 143.936,376.000 144.489,376.000 145.029 C 376.000 145.569,376.158 146.323,376.351 146.705 C 376.935 147.861,377.600 150.204,377.600 151.105 C 377.600 151.571,377.761 152.052,377.958 152.174 C 378.155 152.295,378.410 153.071,378.525 153.897 C 378.640 154.724,378.941 156.210,379.192 157.200 C 381.645 166.846,383.059 178.971,383.623 195.200 C 384.190 211.493,383.250 222.932,380.140 237.600 C 379.790 239.250,379.370 241.230,379.207 242.000 C 377.164 251.633,371.517 267.464,366.057 278.868 C 339.636 334.051,287.167 372.798,227.000 381.558 C 216.787 383.044,203.750 383.891,200.525 383.277 C 199.246 383.034,195.157 382.732,191.437 382.606 C 182.407 382.301,171.395 380.976,163.000 379.184 C 162.120 378.997,160.860 378.735,160.200 378.603 C 159.540 378.470,158.370 378.202,157.600 378.006 C 156.830 377.811,155.300 377.442,154.200 377.187 C 153.100 376.932,151.750 376.579,151.200 376.403 C 150.650 376.227,148.850 375.686,147.200 375.200 C 102.275 361.972,63.275 331.054,39.894 290.129 C 37.314 285.613,32.000 275.177,32.000 274.626 C 32.000 274.515,31.568 273.473,31.041 272.312 C 23.032 254.681,18.191 235.366,16.375 213.800 C 15.845 207.500,16.112 186.288,16.800 180.000 C 17.029 177.910,17.317 175.030,17.441 173.600 C 17.564 172.170,17.830 170.829,18.032 170.620 C 18.235 170.411,18.400 169.297,18.400 168.144 C 18.400 166.991,18.580 165.936,18.800 165.800 C 19.020 165.664,19.200 164.764,19.200 163.800 C 19.200 162.836,19.380 161.936,19.600 161.800 C 19.820 161.664,20.000 160.764,20.000 159.800 C 20.000 158.836,20.180 157.936,20.400 157.800 C 20.620 157.664,20.800 156.944,20.800 156.200 C 20.800 155.456,20.980 154.736,21.200 154.600 C 21.420 154.464,21.600 153.744,21.600 153.000 C 21.600 152.256,21.780 151.536,22.000 151.400 C 22.220 151.264,22.400 150.533,22.400 149.776 C 22.400 149.019,22.580 148.400,22.800 148.400 C 23.020 148.400,23.200 147.860,23.200 147.200 C 23.200 146.540,23.380 146.000,23.600 146.000 C 23.820 146.000,24.000 145.381,24.000 144.624 C 24.000 143.867,24.180 143.136,24.400 143.000 C 24.620 142.864,24.800 142.324,24.800 141.800 C 24.800 141.276,24.980 140.736,25.200 140.600 C 25.420 140.464,25.600 139.924,25.600 139.400 C 25.600 138.876,25.780 138.336,26.000 138.200 C 26.220 138.064,26.400 137.601,26.400 137.171 C 26.400 136.741,26.559 136.077,26.753 135.695 C 26.948 135.313,27.329 134.460,27.600 133.800 C 27.871 133.140,28.252 132.287,28.447 131.905 C 28.641 131.523,28.800 130.968,28.800 130.672 C 28.800 130.173,30.538 126.319,32.412 122.662 C 32.845 121.816,33.200 120.871,33.200 120.562 C 33.200 120.253,33.380 120.000,33.600 120.000 C 33.820 120.000,34.000 119.640,34.000 119.200 C 34.000 118.760,34.180 118.400,34.400 118.400 C 34.620 118.400,34.800 118.040,34.800 117.600 C 34.800 117.160,34.980 116.800,35.200 116.800 C 35.420 116.800,35.600 116.440,35.600 116.000 C 35.600 115.560,35.735 115.199,35.900 115.199 C 36.065 115.198,36.650 114.208,37.200 113.000 C 37.750 111.792,38.335 110.802,38.500 110.801 C 38.665 110.801,38.800 110.440,38.800 110.000 C 38.800 109.560,38.980 109.200,39.200 109.200 C 39.420 109.200,39.600 108.840,39.600 108.400 C 39.600 107.960,39.780 107.600,40.000 107.600 C 40.220 107.600,40.400 107.364,40.400 107.075 C 40.400 106.787,40.760 106.164,41.200 105.692 C 41.640 105.220,42.000 104.556,42.000 104.217 C 42.000 103.878,42.159 103.600,42.353 103.600 C 42.548 103.600,42.813 103.285,42.942 102.900 C 43.330 101.748,47.668 94.979,48.389 94.400 C 48.526 94.290,49.071 93.570,49.600 92.800 C 50.129 92.030,50.886 91.109,51.281 90.753 C 51.676 90.397,52.000 89.884,52.000 89.614 C 52.000 89.343,52.540 88.617,53.200 88.000 C 53.860 87.383,54.400 86.663,54.400 86.400 C 54.400 86.137,54.940 85.417,55.600 84.800 C 56.260 84.183,56.800 83.481,56.800 83.240 C 56.800 82.998,56.980 82.800,57.200 82.800 C 57.420 82.800,57.600 82.614,57.600 82.387 C 57.600 82.159,58.230 81.343,59.000 80.573 C 59.770 79.803,60.400 79.021,60.400 78.834 C 60.400 78.648,63.813 75.054,67.984 70.848 C 72.155 66.642,75.369 63.200,75.127 63.200 C 74.885 63.200,73.287 64.640,71.576 66.400 C 69.865 68.160,68.278 69.600,68.050 69.600 C 67.561 69.600,60.976 75.982,60.753 76.672 C 60.669 76.932,59.115 78.688,57.300 80.574 C 55.485 82.460,54.000 84.202,54.000 84.444 C 54.000 84.687,53.100 85.730,52.000 86.763 C 50.900 87.796,50.000 88.820,50.000 89.039 C 50.000 89.258,49.280 90.141,48.400 91.000 C 47.520 91.859,46.800 92.741,46.800 92.959 C 46.800 93.178,46.327 93.850,45.750 94.453 C 44.712 95.536,43.990 96.626,43.259 98.216 C 43.052 98.665,42.595 99.273,42.242 99.565 C 41.889 99.858,41.600 100.315,41.600 100.579 C 41.600 100.844,41.135 101.497,40.566 102.030 C 39.997 102.564,39.196 103.736,38.785 104.635 C 38.375 105.534,37.761 106.501,37.420 106.784 C 37.079 107.066,36.800 107.524,36.800 107.800 C 36.800 108.076,36.521 108.534,36.180 108.816 C 35.839 109.099,35.210 110.100,34.781 111.041 C 34.353 111.982,33.840 112.852,33.642 112.974 C 33.443 113.097,32.234 115.313,30.953 117.899 C 29.673 120.484,28.485 122.660,28.313 122.733 C 28.141 122.807,28.000 123.212,28.000 123.633 C 28.000 124.055,27.820 124.400,27.600 124.400 C 27.380 124.400,27.200 124.659,27.200 124.976 C 27.200 125.293,26.390 127.113,25.400 129.022 C 24.410 130.930,23.600 132.735,23.600 133.034 C 23.600 133.332,23.240 134.217,22.800 135.000 C 22.360 135.783,22.000 136.683,22.000 137.000 C 22.000 137.317,21.640 138.217,21.200 139.000 C 20.760 139.783,20.400 140.683,20.400 141.000 C 20.400 141.317,20.040 142.217,19.600 143.000 C 19.160 143.783,18.800 144.768,18.800 145.189 C 18.800 145.609,18.620 146.064,18.400 146.200 C 18.180 146.336,18.000 146.876,18.000 147.400 C 18.000 147.924,17.820 148.464,17.600 148.600 C 17.380 148.736,17.200 149.287,17.200 149.824 C 17.200 150.361,17.020 150.800,16.800 150.800 C 16.580 150.800,16.400 151.520,16.400 152.400 C 16.400 153.280,16.220 154.000,16.000 154.000 C 15.780 154.000,15.600 154.540,15.600 155.200 C 15.600 155.860,15.420 156.400,15.200 156.400 C 14.980 156.400,14.800 156.839,14.800 157.376 C 14.800 157.913,14.620 158.464,14.400 158.600 C 14.180 158.736,14.000 159.456,14.000 160.200 C 14.000 160.944,13.820 161.664,13.600 161.800 C 13.380 161.936,13.200 162.656,13.200 163.400 C 13.200 164.144,13.020 164.864,12.800 165.000 C 12.580 165.136,12.400 166.036,12.400 167.000 C 12.400 167.964,12.220 168.864,12.000 169.000 C 11.780 169.136,11.600 170.011,11.600 170.944 C 11.600 171.877,11.423 172.817,11.208 173.032 C 10.992 173.248,10.695 175.270,10.547 177.526 C 10.399 179.782,10.125 181.723,9.939 181.838 C 9.753 181.953,9.600 183.376,9.600 185.000 C 9.600 186.624,9.420 188.064,9.200 188.200 C 8.973 188.340,8.800 190.330,8.800 192.800 C 8.800 195.270,8.627 197.260,8.400 197.400 C 7.855 197.737,7.855 220.263,8.400 220.600 C 8.627 220.740,8.800 222.730,8.800 225.200 C 8.800 227.670,8.973 229.660,9.200 229.800 C 9.420 229.936,9.600 231.376,9.600 233.000 C 9.600 234.624,9.758 236.051,9.952 236.170 C 10.145 236.290,10.433 238.461,10.591 240.995 C 10.749 243.528,11.041 245.702,11.240 245.824 C 11.438 245.947,11.600 246.656,11.600 247.400 C 11.600 248.144,11.780 248.864,12.000 249.000 C 12.220 249.136,12.400 250.036,12.400 251.000 C 12.400 251.964,12.580 252.864,12.800 253.000 C 13.020 253.136,13.200 253.856,13.200 254.600 C 13.200 255.344,13.380 256.064,13.600 256.200 C 13.820 256.336,14.000 257.056,14.000 257.800 C 14.000 258.544,14.180 259.264,14.400 259.400 C 14.620 259.536,14.800 260.087,14.800 260.624 C 14.800 261.161,14.980 261.600,15.200 261.600 C 15.420 261.600,15.600 262.320,15.600 263.200 C 15.600 264.080,15.780 264.800,16.000 264.800 C 16.220 264.800,16.400 265.239,16.400 265.776 C 16.400 266.313,16.580 266.864,16.800 267.000 C 17.020 267.136,17.200 267.676,17.200 268.200 C 17.200 268.724,17.380 269.264,17.600 269.400 C 17.820 269.536,18.000 270.076,18.000 270.600 C 18.000 271.124,18.180 271.664,18.400 271.800 C 18.620 271.936,18.800 272.476,18.800 273.000 C 18.800 273.524,18.980 274.064,19.200 274.200 C 19.420 274.336,19.600 274.791,19.600 275.211 C 19.600 275.632,19.960 276.617,20.400 277.400 C 20.840 278.183,21.200 279.083,21.200 279.400 C 21.200 279.717,21.560 280.617,22.000 281.400 C 22.440 282.183,22.800 283.064,22.800 283.356 C 22.800 284.005,25.281 288.947,25.700 289.133 C 25.865 289.207,26.000 289.614,26.000 290.039 C 26.000 290.463,26.169 291.123,26.376 291.505 C 26.583 291.887,27.493 293.770,28.398 295.690 C 29.303 297.609,30.204 299.279,30.400 299.400 C 30.596 299.521,31.496 301.141,32.400 303.000 C 33.304 304.859,34.214 306.485,34.423 306.614 C 34.631 306.743,35.153 307.618,35.581 308.559 C 36.010 309.500,36.639 310.501,36.980 310.784 C 37.321 311.066,37.600 311.518,37.600 311.787 C 37.600 312.056,37.960 312.602,38.400 313.000 C 38.840 313.398,39.200 313.938,39.200 314.200 C 39.200 314.462,39.560 315.002,40.000 315.400 C 40.440 315.798,40.800 316.344,40.800 316.613 C 40.800 316.882,41.089 317.342,41.442 317.635 C 41.795 317.927,42.252 318.535,42.459 318.984 C 43.190 320.574,43.912 321.664,44.950 322.747 C 45.527 323.350,46.000 324.025,46.000 324.247 C 46.000 324.469,46.540 325.168,47.200 325.800 C 47.860 326.432,48.400 327.110,48.400 327.306 C 48.400 327.502,49.120 328.354,50.000 329.200 C 50.880 330.046,51.600 330.941,51.600 331.191 C 51.600 331.440,52.680 332.704,54.000 334.000 C 55.320 335.296,56.400 336.544,56.400 336.773 C 56.400 337.338,71.473 352.400,72.038 352.400 C 72.284 352.400,73.414 353.390,74.549 354.600 C 75.685 355.810,76.790 356.802,77.007 356.804 C 77.223 356.806,78.343 357.706,79.495 358.804 C 80.648 359.902,81.790 360.800,82.035 360.800 C 82.279 360.800,82.983 361.340,83.600 362.000 C 84.217 362.660,84.891 363.200,85.098 363.200 C 85.306 363.200,85.802 363.560,86.200 364.000 C 86.598 364.440,87.138 364.800,87.400 364.800 C 87.662 364.800,88.202 365.160,88.600 365.600 C 88.998 366.040,89.532 366.400,89.787 366.400 C 90.042 366.400,90.768 366.940,91.400 367.600 C 92.032 368.260,92.758 368.800,93.013 368.800 C 93.268 368.800,93.802 369.160,94.200 369.600 C 94.598 370.040,95.144 370.400,95.413 370.400 C 95.682 370.400,96.134 370.679,96.416 371.020 C 96.699 371.361,97.666 372.004,98.565 372.448 C 101.534 373.917,103.605 375.081,104.307 375.675 C 104.688 375.997,106.742 377.112,108.870 378.153 C 110.999 379.194,112.956 380.306,113.219 380.623 C 113.482 380.940,113.946 381.200,114.249 381.200 C 114.552 381.200,114.800 381.380,114.800 381.600 C 114.800 381.820,115.160 382.000,115.600 382.000 C 116.040 382.000,116.400 382.180,116.400 382.400 C 116.400 382.620,116.940 382.800,117.600 382.800 C 118.260 382.800,118.800 382.980,118.800 383.200 C 118.800 383.420,119.160 383.600,119.600 383.600 C 120.040 383.600,120.400 383.780,120.400 384.000 C 120.400 384.220,120.760 384.400,121.200 384.400 C 121.640 384.400,122.000 384.580,122.000 384.800 C 122.000 385.020,122.342 385.200,122.759 385.200 C 123.177 385.200,124.545 385.740,125.800 386.400 C 127.055 387.060,128.327 387.600,128.628 387.600 C 128.929 387.600,129.817 387.960,130.600 388.400 C 131.383 388.840,132.334 389.201,132.712 389.202 C 133.090 389.204,133.916 389.474,134.546 389.802 C 135.176 390.131,136.020 390.400,136.422 390.400 C 136.824 390.400,137.264 390.580,137.400 390.800 C 137.536 391.020,138.076 391.200,138.600 391.200 C 139.124 391.200,139.664 391.380,139.800 391.600 C 139.936 391.820,140.656 392.000,141.400 392.000 C 142.144 392.000,142.864 392.180,143.000 392.400 C 143.136 392.620,143.687 392.800,144.224 392.800 C 144.761 392.800,145.200 392.980,145.200 393.200 C 145.200 393.420,145.740 393.600,146.400 393.600 C 147.060 393.600,147.600 393.780,147.600 394.000 C 147.600 394.220,148.219 394.400,148.976 394.400 C 149.733 394.400,150.464 394.580,150.600 394.800 C 150.736 395.020,151.456 395.200,152.200 395.200 C 152.944 395.200,153.664 395.380,153.800 395.600 C 153.936 395.820,154.656 396.000,155.400 396.000 C 156.144 396.000,156.864 396.180,157.000 396.400 C 157.136 396.620,157.856 396.800,158.600 396.800 C 159.344 396.800,160.064 396.980,160.200 397.200 C 160.336 397.420,161.427 397.600,162.624 397.600 C 163.821 397.600,164.800 397.780,164.800 398.000 C 164.800 398.220,165.700 398.400,166.800 398.400 C 167.900 398.400,168.800 398.580,168.800 398.800 C 168.800 399.031,170.059 399.200,171.776 399.200 C 173.413 399.200,174.864 399.380,175.000 399.600 C 175.340 400.151,224.660 400.151,225.000 399.600 C 225.136 399.380,226.587 399.200,228.224 399.200 C 229.941 399.200,231.200 399.031,231.200 398.800 C 231.200 398.580,232.100 398.400,233.200 398.400 C 234.300 398.400,235.200 398.220,235.200 398.000 C 235.200 397.780,236.179 397.600,237.376 397.600 C 238.573 397.600,239.664 397.420,239.800 397.200 C 239.936 396.980,240.656 396.800,241.400 396.800 C 242.144 396.800,242.864 396.620,243.000 396.400 C 243.136 396.180,243.856 396.000,244.600 396.000 C 245.344 396.000,246.064 395.820,246.200 395.600 C 246.336 395.380,247.056 395.200,247.800 395.200 C 248.544 395.200,249.264 395.020,249.400 394.800 C 249.536 394.580,250.267 394.400,251.024 394.400 C 251.781 394.400,252.400 394.220,252.400 394.000 C 252.400 393.780,252.940 393.600,253.600 393.600 C 254.260 393.600,254.800 393.420,254.800 393.200 C 254.800 392.980,255.239 392.800,255.776 392.800 C 256.313 392.800,256.864 392.620,257.000 392.400 C 257.136 392.180,257.856 392.000,258.600 392.000 C 259.344 392.000,260.064 391.820,260.200 391.600 C 260.336 391.380,260.876 391.200,261.400 391.200 C 261.924 391.200,262.464 391.020,262.600 390.800 C 262.736 390.580,263.176 390.400,263.578 390.400 C 263.980 390.400,264.824 390.131,265.454 389.802 C 266.084 389.474,266.910 389.204,267.288 389.202 C 267.666 389.201,268.617 388.840,269.400 388.400 C 270.183 387.960,271.071 387.600,271.372 387.600 C 271.673 387.600,272.945 387.060,274.200 386.400 C 275.455 385.740,276.823 385.200,277.241 385.200 C 277.658 385.200,278.000 385.020,278.000 384.800 C 278.000 384.580,278.360 384.400,278.800 384.400 C 279.240 384.400,279.600 384.220,279.600 384.000 C 279.600 383.780,279.960 383.600,280.400 383.600 C 280.840 383.600,281.200 383.420,281.200 383.200 C 281.200 382.980,281.740 382.800,282.400 382.800 C 283.060 382.800,283.600 382.620,283.600 382.400 C 283.600 382.180,283.960 382.000,284.400 382.000 C 284.840 382.000,285.200 381.820,285.200 381.600 C 285.200 381.380,285.448 381.200,285.751 381.200 C 286.054 381.200,286.522 380.935,286.791 380.611 C 287.059 380.287,289.148 379.105,291.433 377.984 C 293.718 376.863,295.687 375.783,295.809 375.586 C 295.931 375.388,297.149 374.667,298.516 373.983 C 301.893 372.293,302.672 371.840,303.529 371.064 C 303.933 370.699,304.446 370.400,304.670 370.400 C 304.893 370.400,305.402 370.040,305.800 369.600 C 306.198 369.160,306.738 368.800,307.000 368.800 C 307.262 368.800,307.802 368.440,308.200 368.000 C 308.598 367.560,309.132 367.200,309.387 367.200 C 309.642 367.200,310.368 366.660,311.000 366.000 C 311.632 365.340,312.358 364.800,312.613 364.800 C 312.868 364.800,313.402 364.440,313.800 364.000 C 314.198 363.560,314.694 363.200,314.902 363.200 C 315.109 363.200,315.783 362.660,316.400 362.000 C 317.017 361.340,317.721 360.800,317.965 360.800 C 318.210 360.800,319.352 359.902,320.505 358.804 C 321.657 357.706,322.777 356.806,322.993 356.804 C 323.210 356.802,324.315 355.810,325.451 354.600 C 326.586 353.390,327.716 352.400,327.962 352.400 C 328.527 352.400,343.600 337.338,343.600 336.773 C 343.600 336.544,344.680 335.296,346.000 334.000 C 347.320 332.704,348.400 331.440,348.400 331.191 C 348.400 330.941,349.120 330.046,350.000 329.200 C 350.880 328.354,351.600 327.502,351.600 327.306 C 351.600 327.110,352.140 326.432,352.800 325.800 C 353.460 325.168,354.000 324.469,354.000 324.247 C 354.000 324.025,354.473 323.350,355.050 322.747 C 356.088 321.664,356.810 320.574,357.541 318.984 C 357.748 318.535,358.205 317.927,358.558 317.635 C 358.911 317.342,359.200 316.882,359.200 316.613 C 359.200 316.344,359.560 315.798,360.000 315.400 C 360.440 315.002,360.800 314.462,360.800 314.200 C 360.800 313.938,361.160 313.398,361.600 313.000 C 362.040 312.602,362.400 312.056,362.400 311.787 C 362.400 311.518,362.679 311.066,363.020 310.784 C 363.361 310.501,363.990 309.500,364.419 308.559 C 364.847 307.618,365.373 306.741,365.586 306.609 C 365.799 306.477,366.526 305.213,367.200 303.800 C 367.874 302.387,368.588 301.131,368.786 301.009 C 369.122 300.801,372.438 294.181,373.649 291.300 C 373.949 290.585,374.331 290.000,374.498 290.000 C 374.664 290.000,374.800 289.658,374.800 289.241 C 374.800 288.823,375.340 287.455,376.000 286.200 C 376.660 284.945,377.200 283.673,377.200 283.372 C 377.200 283.071,377.560 282.183,378.000 281.400 C 378.440 280.617,378.800 279.717,378.800 279.400 C 378.800 279.083,379.160 278.183,379.600 277.400 C 380.040 276.617,380.400 275.632,380.400 275.211 C 380.400 274.791,380.580 274.336,380.800 274.200 C 381.020 274.064,381.200 273.524,381.200 273.000 C 381.200 272.476,381.380 271.936,381.600 271.800 C 381.820 271.664,382.000 271.124,382.000 270.600 C 382.000 270.076,382.180 269.536,382.400 269.400 C 382.620 269.264,382.800 268.724,382.800 268.200 C 382.800 267.676,382.980 267.136,383.200 267.000 C 383.420 266.864,383.600 266.313,383.600 265.776 C 383.600 265.239,383.780 264.800,384.000 264.800 C 384.220 264.800,384.400 264.260,384.400 263.600 C 384.400 262.940,384.580 262.400,384.800 262.400 C 385.020 262.400,385.200 261.781,385.200 261.024 C 385.200 260.267,385.380 259.536,385.600 259.400 C 385.820 259.264,386.000 258.544,386.000 257.800 C 386.000 257.056,386.180 256.336,386.400 256.200 C 386.620 256.064,386.800 255.344,386.800 254.600 C 386.800 253.856,386.980 253.136,387.200 253.000 C 387.420 252.864,387.600 252.144,387.600 251.400 C 387.600 250.656,387.780 249.936,388.000 249.800 C 388.220 249.664,388.400 248.764,388.400 247.800 C 388.400 246.836,388.558 245.949,388.752 245.830 C 388.945 245.710,389.233 243.719,389.390 241.406 C 389.548 239.092,389.840 237.099,390.039 236.976 C 390.237 236.853,390.400 235.424,390.400 233.800 C 390.400 232.176,390.580 230.736,390.800 230.600 C 391.027 230.460,391.200 228.470,391.200 226.000 C 391.200 223.530,391.373 221.540,391.600 221.400 C 391.852 221.244,392.000 216.670,392.000 209.000 C 392.000 201.330,391.852 196.756,391.600 196.600 C 391.373 196.460,391.200 194.470,391.200 192.000 C 391.200 189.530,391.027 187.540,390.800 187.400 C 390.580 187.264,390.400 185.824,390.400 184.200 C 390.400 182.576,390.246 181.152,390.058 181.036 C 389.870 180.920,389.591 179.154,389.437 177.112 C 389.283 175.071,388.987 173.229,388.779 173.020 C 388.570 172.811,388.400 171.877,388.400 170.944 C 388.400 170.011,388.220 169.136,388.000 169.000 C 387.780 168.864,387.600 167.964,387.600 167.000 C 387.600 166.036,387.420 165.136,387.200 165.000 C 386.980 164.864,386.800 164.144,386.800 163.400 C 386.800 162.656,386.620 161.936,386.400 161.800 C 386.180 161.664,386.000 160.944,386.000 160.200 C 386.000 159.456,385.820 158.736,385.600 158.600 C 385.380 158.464,385.200 157.913,385.200 157.376 C 385.200 156.839,385.020 156.400,384.800 156.400 C 384.580 156.400,384.400 155.680,384.400 154.800 C 384.400 153.920,384.220 153.200,384.000 153.200 C 383.780 153.200,383.600 152.660,383.600 152.000 C 383.600 151.340,383.420 150.800,383.200 150.800 C 382.980 150.800,382.800 150.361,382.800 149.824 C 382.800 149.287,382.620 148.736,382.400 148.600 C 382.180 148.464,382.000 147.924,382.000 147.400 C 382.000 146.876,381.820 146.336,381.600 146.200 C 381.380 146.064,381.200 145.609,381.200 145.189 C 381.200 144.768,380.840 143.783,380.400 143.000 C 379.960 142.217,379.600 141.232,379.600 140.811 C 379.600 140.391,379.420 139.936,379.200 139.800 C 378.980 139.664,378.800 139.222,378.800 138.817 C 378.800 138.412,378.260 137.055,377.600 135.800 C 376.940 134.545,376.400 133.292,376.400 133.015 C 376.400 132.737,375.680 131.111,374.800 129.400 C 373.920 127.689,373.200 126.124,373.200 125.923 C 373.200 125.328,371.635 122.069,371.228 121.818 C 371.023 121.691,369.930 119.703,368.800 117.400 C 367.670 115.097,366.577 113.109,366.372 112.982 C 366.166 112.855,365.639 111.963,365.200 111.000 C 364.761 110.037,364.221 109.137,364.000 109.000 C 363.779 108.863,363.247 107.982,362.819 107.041 C 362.390 106.100,361.761 105.099,361.420 104.816 C 361.079 104.534,360.800 104.082,360.800 103.813 C 360.800 103.544,360.440 102.998,360.000 102.600 C 359.560 102.202,359.200 101.665,359.200 101.408 C 359.200 101.150,358.731 100.503,358.158 99.970 C 357.584 99.436,356.946 98.640,356.740 98.200 C 355.988 96.593,355.278 95.525,354.250 94.453 C 353.673 93.850,353.200 93.175,353.200 92.953 C 353.200 92.731,352.660 92.032,352.000 91.400 C 351.340 90.768,350.800 90.043,350.800 89.790 C 350.800 89.536,349.900 88.512,348.800 87.514 C 347.700 86.517,346.800 85.503,346.800 85.262 C 346.800 85.021,345.362 83.333,343.604 81.512 C 341.845 79.690,340.405 78.024,340.404 77.809 C 340.399 77.286,331.672 68.800,331.139 68.800 C 330.909 68.800,329.338 67.360,327.648 65.600 C 325.957 63.840,324.392 62.400,324.170 62.400 C 323.948 62.400,322.972 61.590,322.000 60.600 C 321.028 59.610,319.988 58.800,319.688 58.800 C 319.237 58.800,319.234 58.886,319.671 59.300 M261.494 61.635 C 256.129 62.899,252.012 67.758,250.555 74.546 C 250.147 76.447,250.025 83.650,250.014 106.487 L 250.000 135.975 246.860 139.087 C 229.645 156.151,244.733 186.469,268.842 183.259 C 291.582 180.231,299.833 151.487,282.100 137.073 C 281.218 136.356,281.200 136.174,281.200 127.820 C 281.200 117.803,281.584 118.523,276.141 118.338 C 271.584 118.183,270.400 117.607,270.400 115.547 C 270.400 113.720,271.872 113.059,276.358 112.871 C 280.819 112.683,281.200 112.476,281.200 110.231 C 281.200 107.862,280.764 107.600,276.820 107.599 C 272.536 107.599,270.661 106.824,270.481 104.980 C 270.269 102.820,271.361 102.286,276.415 102.078 C 281.821 101.855,281.307 103.466,281.124 87.336 C 280.962 73.130,280.627 71.192,277.630 67.114 C 274.139 62.363,267.693 60.175,261.494 61.635 M269.637 68.819 C 273.619 70.851,274.490 74.192,274.324 86.800 L 274.200 96.200 269.013 96.520 C 266.161 96.696,263.752 96.914,263.661 97.005 C 263.570 97.096,263.515 106.492,263.538 117.885 C 263.590 142.840,264.009 140.672,258.193 145.515 C 254.233 148.812,252.200 151.222,251.731 153.178 C 250.886 156.693,249.046 158.749,247.481 157.928 C 244.197 156.207,247.809 146.085,253.050 142.321 C 254.031 141.617,255.231 140.401,255.717 139.620 L 256.600 138.200 256.800 106.600 C 257.018 72.077,256.881 74.067,259.278 70.693 C 261.158 68.047,266.300 67.116,269.637 68.819 M86.205 78.159 C 85.352 79.011,85.200 79.532,85.200 81.595 C 85.200 84.048,87.040 105.122,88.815 123.000 C 89.599 130.900,91.203 147.930,91.791 154.600 C 92.121 158.340,92.570 163.200,92.788 165.400 C 93.007 167.600,93.306 170.625,93.452 172.121 C 93.668 174.325,93.928 175.067,94.820 176.021 L 95.921 177.200 126.142 177.200 C 161.853 177.200,159.132 177.686,159.750 171.200 C 160.711 161.121,162.096 146.313,162.407 142.800 C 162.611 140.490,162.966 136.620,163.198 134.200 C 163.429 131.780,163.795 127.820,164.012 125.400 C 164.229 122.980,164.585 119.200,164.803 117.000 C 168.781 76.800,168.784 77.200,164.488 77.200 C 161.321 77.200,161.069 77.941,159.964 90.502 C 159.307 97.966,160.045 97.300,152.969 96.818 C 142.710 96.121,133.572 96.305,120.800 97.467 L 109.000 98.541 101.626 97.877 C 97.571 97.512,94.128 97.075,93.975 96.906 C 93.822 96.738,93.331 92.749,92.883 88.042 C 91.944 78.167,91.690 77.487,88.865 77.277 C 87.533 77.178,87.013 77.351,86.205 78.159 M158.578 102.765 C 158.703 102.966,158.622 104.991,158.399 107.265 C 158.176 109.539,157.810 113.380,157.585 115.800 C 157.361 118.220,157.001 122.090,156.786 124.400 C 156.570 126.710,155.849 134.630,155.184 142.000 C 153.523 160.399,152.820 167.606,152.558 168.900 L 152.336 170.000 126.592 170.000 C 111.022 170.000,100.756 169.852,100.616 169.625 C 100.488 169.419,100.211 167.124,99.998 164.525 C 99.786 161.926,99.429 158.000,99.204 155.800 C 98.979 153.600,98.434 147.840,97.992 143.000 C 97.550 138.160,96.921 131.320,96.595 127.800 C 96.269 124.280,95.818 119.330,95.593 116.800 C 95.368 114.270,94.985 110.273,94.742 107.918 C 94.499 105.563,94.407 103.358,94.538 103.018 C 94.813 102.302,158.137 102.052,158.578 102.765 M134.880 110.480 C 134.616 110.744,134.400 111.641,134.400 112.472 C 134.400 114.414,134.985 114.586,141.479 114.555 C 146.916 114.530,147.600 114.270,147.600 112.231 C 147.600 110.142,147.181 110.000,141.000 110.000 C 137.147 110.000,135.208 110.152,134.880 110.480 M127.600 120.000 C 126.641 120.959,126.573 122.298,127.423 123.511 C 128.160 124.564,146.104 124.936,147.120 123.920 C 148.086 122.954,147.717 120.025,146.574 119.590 C 144.392 118.761,128.496 119.104,127.600 120.000 M135.062 130.331 C 134.290 131.184,134.187 133.227,134.880 133.920 C 135.549 134.589,146.451 134.589,147.120 133.920 C 147.943 133.097,147.702 130.917,146.711 130.223 C 145.303 129.236,135.974 129.324,135.062 130.331 M134.880 140.080 C 134.082 140.878,134.280 143.508,135.174 143.986 C 136.349 144.615,146.039 144.497,146.900 143.843 C 147.775 143.179,147.817 141.074,146.971 140.229 C 146.166 139.424,135.666 139.294,134.880 140.080 M127.174 150.669 C 125.813 154.248,127.175 154.802,137.326 154.794 C 146.662 154.787,147.330 154.621,147.526 152.263 C 147.747 149.587,147.798 149.600,137.141 149.600 L 127.580 149.600 127.174 150.669 M135.100 160.032 C 134.278 160.511,134.128 163.168,134.880 163.920 C 135.666 164.706,146.166 164.576,146.971 163.771 C 147.817 162.926,147.775 160.821,146.900 160.157 C 146.045 159.508,136.179 159.404,135.100 160.032 M90.480 223.280 C 90.175 223.585,89.998 225.150,89.994 227.580 C 89.987 232.024,89.984 232.030,87.513 233.115 C 70.728 240.485,69.996 265.027,86.425 269.580 C 90.251 270.640,89.988 269.517,89.988 284.800 C 89.988 299.830,90.050 299.464,87.634 298.612 C 81.604 296.484,80.274 294.880,80.000 289.401 L 79.800 285.400 78.134 285.279 L 76.468 285.157 76.247 287.679 C 75.636 294.651,75.560 300.669,76.077 301.066 C 77.205 301.932,86.470 304.376,88.692 304.393 C 89.752 304.401,89.955 305.067,90.098 309.000 L 90.200 311.800 93.038 311.916 C 96.540 312.060,96.725 311.871,96.881 307.992 L 97.000 305.021 100.598 304.545 C 104.875 303.980,104.785 303.908,104.794 307.933 C 104.800 310.815,105.217 311.484,106.068 309.976 C 106.247 309.659,107.499 307.510,108.849 305.200 C 110.200 302.890,112.424 299.020,113.791 296.600 C 116.768 291.332,116.862 291.170,121.765 282.800 C 126.401 274.887,126.346 275.065,124.990 272.348 C 122.836 268.032,119.656 265.596,114.600 264.389 L 111.800 263.721 111.695 250.661 C 111.577 236.073,111.451 236.659,114.324 238.410 C 116.055 239.465,116.799 241.347,116.805 244.687 C 116.814 248.763,117.007 249.200,118.804 249.200 C 120.599 249.200,120.800 248.836,120.800 245.596 C 120.800 244.310,121.011 241.850,121.269 240.129 C 122.139 234.321,121.980 234.112,115.400 232.441 C 111.414 231.429,111.600 231.662,111.600 227.671 C 111.600 223.306,111.218 222.800,107.917 222.800 C 105.097 222.800,104.864 223.107,104.718 227.019 L 104.600 230.200 100.700 230.314 L 96.800 230.429 96.800 227.276 C 96.800 223.358,96.345 222.800,93.149 222.800 C 91.945 222.800,90.744 223.016,90.480 223.280 M104.357 235.748 C 104.680 236.138,104.781 240.075,104.706 249.448 L 104.600 262.600 101.400 262.458 C 96.352 262.234,96.800 263.580,96.800 248.653 C 96.800 241.547,96.920 235.613,97.067 235.467 C 97.601 234.933,103.881 235.175,104.357 235.748 M89.988 249.200 C 89.988 260.051,89.912 260.466,88.169 259.121 C 82.420 254.683,82.297 244.485,87.933 239.537 C 89.917 237.795,89.988 238.126,89.988 249.200 M274.400 242.052 C 252.664 244.261,234.352 255.040,226.749 270.100 C 225.414 272.746,225.451 272.904,227.666 274.034 C 229.620 275.030,230.075 274.892,230.956 273.036 C 240.032 253.910,270.796 242.472,297.800 248.186 C 313.255 251.456,328.149 261.732,333.970 273.142 C 334.968 275.097,334.968 275.097,337.350 273.766 C 339.642 272.485,339.640 272.249,337.318 268.345 C 333.433 261.813,326.942 255.441,319.721 251.069 C 307.876 243.897,290.419 240.424,274.400 242.052 M281.300 250.265 C 280.924 250.417,280.800 252.393,280.800 258.226 L 280.800 265.985 281.768 266.228 C 284.215 266.842,284.190 266.921,284.309 258.424 C 284.430 249.785,284.179 249.103,281.300 250.265 M257.300 254.488 C 255.983 255.123,256.137 255.945,258.859 262.800 C 261.764 270.120,261.547 269.811,263.363 269.212 C 265.259 268.586,265.253 268.547,262.127 260.705 C 259.350 253.740,259.214 253.565,257.300 254.488 M301.434 260.650 C 298.400 268.311,298.422 268.184,299.980 268.990 C 301.990 270.029,301.743 270.414,305.761 260.000 C 307.532 255.410,307.534 255.399,306.724 254.700 C 304.720 252.973,304.276 253.473,301.434 260.650 M312.924 258.882 C 312.339 259.631,306.000 271.020,306.000 271.322 C 306.000 271.461,307.007 272.219,308.237 273.007 C 311.221 274.915,314.088 277.643,315.621 280.033 C 316.619 281.588,317.011 281.915,317.538 281.631 C 319.576 280.531,329.080 274.670,329.516 274.244 C 330.777 273.011,323.215 264.585,317.365 260.705 C 313.911 258.414,313.440 258.221,312.924 258.882 M293.404 269.100 C 293.080 269.485,290.494 273.400,287.657 277.800 C 284.079 283.350,282.097 286.045,281.187 286.600 C 277.222 289.018,276.047 291.579,277.516 294.602 C 280.615 300.981,290.549 296.906,288.033 290.287 C 287.734 289.500,288.398 287.507,291.658 279.415 C 293.854 273.965,295.554 269.258,295.437 268.953 C 295.143 268.187,294.109 268.261,293.404 269.100 M237.086 270.362 C 236.048 272.119,235.995 272.059,242.235 276.189 C 249.271 280.847,249.109 280.777,250.042 279.562 C 251.357 277.852,251.034 277.472,244.687 273.258 C 237.818 268.698,238.023 268.776,237.086 270.362 M101.827 271.639 C 104.980 272.221,104.787 271.295,104.794 285.877 C 104.801 301.039,105.160 300.000,99.911 300.000 L 96.800 300.000 96.800 285.867 C 96.800 278.093,96.920 271.613,97.067 271.467 C 97.455 271.079,99.123 271.139,101.827 271.639 M142.109 272.645 C 136.503 273.863,133.965 275.182,132.568 277.603 C 131.871 278.812,128.915 283.940,125.999 289.000 C 123.083 294.060,119.847 299.640,118.807 301.400 C 117.768 303.160,116.462 305.410,115.905 306.400 C 115.347 307.390,114.400 309.064,113.800 310.121 C 112.570 312.284,112.617 312.430,114.640 312.762 C 115.884 312.966,116.174 313.227,116.685 314.600 C 120.970 326.130,129.599 333.987,140.600 336.376 C 141.920 336.663,143.630 337.054,144.400 337.246 C 146.365 337.736,153.215 337.686,155.494 337.164 C 164.401 335.126,167.527 333.843,172.184 330.311 C 174.992 328.182,178.400 324.417,178.400 323.444 C 178.400 322.979,173.200 319.200,172.561 319.200 C 172.424 319.200,170.869 320.557,169.107 322.215 C 155.895 334.644,134.302 331.399,126.435 315.802 C 125.781 314.507,125.337 313.302,125.447 313.124 C 125.557 312.946,132.912 312.800,141.791 312.800 C 160.053 312.800,158.906 312.953,160.233 310.335 C 161.690 307.460,162.592 307.600,142.590 307.600 C 122.212 307.600,123.600 307.815,123.600 304.659 C 123.600 301.782,121.924 302.000,144.061 302.000 L 164.036 302.000 165.040 300.996 C 166.483 299.553,167.424 297.188,166.730 296.748 C 166.438 296.563,156.963 296.409,145.673 296.406 L 125.146 296.400 125.418 295.500 C 127.256 289.425,135.354 282.354,142.400 280.671 C 152.935 278.155,162.561 280.617,169.675 287.647 L 172.469 290.407 174.445 289.304 C 175.532 288.697,176.912 287.810,177.511 287.332 L 178.600 286.464 177.841 285.040 C 172.924 275.808,155.448 269.746,142.109 272.645 M114.192 275.764 C 118.611 280.449,118.440 289.217,113.835 294.065 C 111.494 296.529,111.600 296.962,111.600 284.933 C 111.600 273.160,111.631 273.049,114.192 275.764 M223.677 276.797 L 222.847 278.794 224.596 279.997 C 225.557 280.659,226.432 281.200,226.540 281.200 C 226.648 281.200,228.325 282.162,230.268 283.339 C 232.211 284.515,237.130 287.420,241.200 289.794 C 245.270 292.169,249.928 294.896,251.551 295.856 C 255.150 297.983,254.942 297.983,256.183 295.865 C 257.579 293.482,257.684 293.647,253.100 291.031 C 250.845 289.745,246.030 286.946,242.400 284.811 C 222.634 273.188,224.792 274.112,223.677 276.797 M334.400 278.057 C 324.975 283.392,313.400 289.888,311.200 291.077 C 309.990 291.731,308.609 292.510,308.132 292.809 L 307.264 293.353 308.224 295.248 C 309.513 297.792,309.424 297.780,312.818 295.844 C 314.458 294.908,319.670 291.967,324.400 289.308 C 329.130 286.649,333.720 284.066,334.600 283.568 C 335.480 283.070,337.370 282.015,338.800 281.224 C 341.689 279.625,342.013 278.964,341.043 276.641 C 340.254 274.754,340.223 274.761,334.400 278.057 " stroke="none" fill="#252626" fill-rule="evenodd"></path><path id="path3" d="M200.800 15.600 C 200.800 15.842,202.533 16.000,205.200 16.000 C 207.867 16.000,209.600 15.842,209.600 15.600 C 209.600 15.358,207.867 15.200,205.200 15.200 C 202.533 15.200,200.800 15.358,200.800 15.600 M214.800 16.400 C 214.800 16.626,215.933 16.800,217.400 16.800 C 218.867 16.800,220.000 16.626,220.000 16.400 C 220.000 16.174,218.867 16.000,217.400 16.000 C 215.933 16.000,214.800 16.174,214.800 16.400 M223.200 17.200 C 222.773 17.476,223.234 17.588,224.800 17.588 C 226.366 17.588,226.827 17.476,226.400 17.200 C 226.070 16.987,225.350 16.812,224.800 16.812 C 224.250 16.812,223.530 16.987,223.200 17.200 M168.400 18.085 C 168.400 18.258,168.760 18.400,169.200 18.400 C 169.640 18.400,170.000 18.231,170.000 18.025 C 170.000 17.819,169.640 17.677,169.200 17.710 C 168.760 17.743,168.400 17.912,168.400 18.085 M229.200 18.000 C 229.200 18.220,229.740 18.400,230.400 18.400 C 231.060 18.400,231.600 18.220,231.600 18.000 C 231.600 17.780,231.060 17.600,230.400 17.600 C 229.740 17.600,229.200 17.780,229.200 18.000 M163.800 18.800 C 163.660 19.027,163.996 19.200,164.576 19.200 C 165.139 19.200,165.600 19.020,165.600 18.800 C 165.600 18.580,165.251 18.400,164.824 18.400 C 164.397 18.400,163.936 18.580,163.800 18.800 M233.800 18.800 C 233.936 19.020,234.587 19.200,235.247 19.200 C 235.945 19.200,236.344 19.033,236.200 18.800 C 236.064 18.580,235.413 18.400,234.753 18.400 C 234.055 18.400,233.656 18.567,233.800 18.800 M160.000 19.600 C 160.000 19.820,160.450 20.000,161.000 20.000 C 161.550 20.000,162.000 19.820,162.000 19.600 C 162.000 19.380,161.550 19.200,161.000 19.200 C 160.450 19.200,160.000 19.380,160.000 19.600 M238.000 19.600 C 238.000 19.820,238.461 20.000,239.024 20.000 C 239.604 20.000,239.940 19.827,239.800 19.600 C 239.664 19.380,239.203 19.200,238.776 19.200 C 238.349 19.200,238.000 19.380,238.000 19.600 M156.800 20.400 C 156.800 20.620,157.250 20.800,157.800 20.800 C 158.350 20.800,158.800 20.620,158.800 20.400 C 158.800 20.180,158.350 20.000,157.800 20.000 C 157.250 20.000,156.800 20.180,156.800 20.400 M241.200 20.400 C 241.200 20.620,241.650 20.800,242.200 20.800 C 242.750 20.800,243.200 20.620,243.200 20.400 C 243.200 20.180,242.750 20.000,242.200 20.000 C 241.650 20.000,241.200 20.180,241.200 20.400 M153.600 21.200 C 153.600 21.420,154.061 21.600,154.624 21.600 C 155.204 21.600,155.540 21.427,155.400 21.200 C 155.264 20.980,154.803 20.800,154.376 20.800 C 153.949 20.800,153.600 20.980,153.600 21.200 M244.800 21.200 C 244.800 21.420,245.160 21.600,245.600 21.600 C 246.040 21.600,246.400 21.420,246.400 21.200 C 246.400 20.980,246.040 20.800,245.600 20.800 C 245.160 20.800,244.800 20.980,244.800 21.200 M150.400 22.000 C 150.400 22.220,150.850 22.400,151.400 22.400 C 151.950 22.400,152.400 22.220,152.400 22.000 C 152.400 21.780,151.950 21.600,151.400 21.600 C 150.850 21.600,150.400 21.780,150.400 22.000 M247.600 22.000 C 247.600 22.220,248.050 22.400,248.600 22.400 C 249.150 22.400,249.600 22.220,249.600 22.000 C 249.600 21.780,249.150 21.600,248.600 21.600 C 248.050 21.600,247.600 21.780,247.600 22.000 M147.400 22.800 C 147.536 23.020,147.997 23.200,148.424 23.200 C 148.851 23.200,149.200 23.020,149.200 22.800 C 149.200 22.580,148.739 22.400,148.176 22.400 C 147.596 22.400,147.260 22.573,147.400 22.800 M250.400 22.800 C 250.400 23.020,250.940 23.200,251.600 23.200 C 252.260 23.200,252.800 23.020,252.800 22.800 C 252.800 22.580,252.260 22.400,251.600 22.400 C 250.940 22.400,250.400 22.580,250.400 22.800 M145.200 23.600 C 145.200 23.820,145.470 24.000,145.800 24.000 C 146.130 24.000,146.400 23.820,146.400 23.600 C 146.400 23.380,146.130 23.200,145.800 23.200 C 145.470 23.200,145.200 23.380,145.200 23.600 M253.200 23.600 C 253.200 23.820,253.661 24.000,254.224 24.000 C 254.804 24.000,255.140 23.827,255.000 23.600 C 254.864 23.380,254.403 23.200,253.976 23.200 C 253.549 23.200,253.200 23.380,253.200 23.600 M142.000 24.400 C 142.000 24.620,142.450 24.800,143.000 24.800 C 143.550 24.800,144.000 24.620,144.000 24.400 C 144.000 24.180,143.550 24.000,143.000 24.000 C 142.450 24.000,142.000 24.180,142.000 24.400 M255.600 24.400 C 255.600 24.620,256.039 24.800,256.576 24.800 C 257.113 24.800,257.664 24.620,257.800 24.400 C 257.944 24.167,257.537 24.000,256.824 24.000 C 256.151 24.000,255.600 24.180,255.600 24.400 M139.200 25.174 C 138.870 25.354,137.520 25.825,136.200 26.221 C 134.880 26.617,133.629 27.090,133.420 27.271 C 133.211 27.452,132.804 27.600,132.516 27.600 C 132.227 27.600,131.183 27.960,130.196 28.400 C 129.208 28.840,127.590 29.561,126.600 30.002 C 125.610 30.443,124.800 30.983,124.800 31.202 C 124.800 31.691,125.012 31.700,125.905 31.250 C 128.974 29.704,130.171 29.200,130.771 29.200 C 131.154 29.200,131.595 29.072,131.752 28.915 C 132.194 28.473,135.717 27.201,136.500 27.200 C 136.885 27.200,137.200 27.020,137.200 26.800 C 137.200 26.580,137.639 26.400,138.176 26.400 C 138.713 26.400,139.264 26.220,139.400 26.000 C 139.536 25.780,140.087 25.600,140.624 25.600 C 141.161 25.600,141.600 25.420,141.600 25.200 C 141.600 24.726,140.053 24.709,139.200 25.174 M258.000 25.200 C 258.000 25.420,258.529 25.600,259.176 25.600 C 259.823 25.600,260.464 25.780,260.600 26.000 C 260.736 26.220,261.276 26.400,261.800 26.400 C 262.324 26.400,262.864 26.580,263.000 26.800 C 263.136 27.020,263.676 27.200,264.200 27.200 C 264.724 27.200,265.264 27.380,265.400 27.600 C 265.536 27.820,265.922 28.000,266.257 28.000 C 267.021 28.000,266.737 27.007,265.966 26.982 C 265.655 26.971,264.991 26.738,264.492 26.463 C 263.992 26.188,263.407 26.072,263.192 26.205 C 262.976 26.338,262.800 26.257,262.800 26.024 C 262.800 25.791,262.260 25.600,261.600 25.600 C 260.940 25.600,260.400 25.420,260.400 25.200 C 260.400 24.980,259.860 24.800,259.200 24.800 C 258.540 24.800,258.000 24.980,258.000 25.200 M267.645 27.972 C 267.253 28.215,267.290 28.349,267.803 28.546 C 268.171 28.687,268.636 28.701,268.836 28.578 C 269.036 28.454,269.200 28.543,269.200 28.776 C 269.200 29.009,269.470 29.200,269.800 29.200 C 270.130 29.200,270.400 29.020,270.400 28.800 C 270.400 28.580,270.265 28.438,270.100 28.485 C 269.935 28.532,269.430 28.364,268.978 28.113 C 268.527 27.862,267.927 27.798,267.645 27.972 M271.569 29.627 C 271.129 29.906,271.197 29.989,271.867 29.994 C 272.343 29.997,272.802 30.207,272.887 30.460 C 272.971 30.713,273.239 30.848,273.483 30.760 C 273.729 30.671,273.529 30.304,273.032 29.934 C 272.442 29.493,271.945 29.389,271.569 29.627 M115.000 35.735 C 114.120 36.211,113.340 36.735,113.267 36.900 C 113.193 37.065,112.788 37.200,112.367 37.200 C 111.945 37.200,111.600 37.380,111.600 37.600 C 111.600 37.820,111.330 38.000,111.000 38.000 C 110.670 38.000,110.400 38.180,110.400 38.400 C 110.400 38.620,110.670 38.800,111.000 38.800 C 111.330 38.800,111.600 38.620,111.600 38.400 C 111.600 38.180,111.960 38.000,112.400 38.000 C 112.840 38.000,113.200 37.820,113.200 37.600 C 113.200 37.380,113.470 37.200,113.800 37.200 C 114.130 37.200,114.400 37.020,114.400 36.800 C 114.400 36.580,114.760 36.400,115.200 36.400 C 115.640 36.400,116.000 36.220,116.000 36.000 C 116.000 35.780,116.270 35.600,116.600 35.600 C 116.930 35.600,117.200 35.420,117.200 35.200 C 117.200 34.650,116.852 34.735,115.000 35.735 M108.500 39.344 C 108.005 39.589,107.600 39.927,107.600 40.095 C 107.600 40.263,107.240 40.400,106.800 40.400 C 106.360 40.400,106.000 40.580,106.000 40.800 C 106.000 41.020,105.640 41.200,105.200 41.200 C 104.760 41.200,104.400 41.353,104.400 41.539 C 104.400 41.726,103.724 42.183,102.897 42.556 C 102.071 42.929,100.496 43.862,99.397 44.630 C 98.299 45.397,96.725 46.472,95.900 47.018 C 95.075 47.563,94.400 48.216,94.400 48.467 C 94.400 48.721,94.756 48.602,95.200 48.200 C 95.640 47.802,96.000 47.621,96.000 47.799 C 96.000 47.977,96.336 47.735,96.747 47.261 C 97.158 46.788,97.717 46.400,97.989 46.400 C 98.262 46.400,99.141 45.886,99.942 45.257 C 100.744 44.629,102.075 43.798,102.900 43.412 C 103.725 43.025,104.400 42.549,104.400 42.354 C 104.400 42.159,104.760 42.000,105.200 42.000 C 105.640 42.000,106.000 41.820,106.000 41.600 C 106.000 41.380,106.360 41.200,106.800 41.200 C 107.240 41.200,107.600 41.020,107.600 40.800 C 107.600 40.580,107.870 40.400,108.200 40.400 C 108.530 40.400,108.800 40.220,108.800 40.000 C 108.800 39.780,109.070 39.600,109.400 39.600 C 109.730 39.600,110.000 39.420,110.000 39.200 C 110.000 38.722,109.697 38.751,108.500 39.344 M88.917 52.324 C 87.764 53.721,88.079 53.957,89.372 52.664 C 89.934 52.102,90.257 51.559,90.090 51.456 C 89.924 51.353,89.396 51.744,88.917 52.324 M85.100 55.287 C 84.051 56.600,84.257 56.979,85.400 55.836 C 85.950 55.286,86.400 54.738,86.400 54.618 C 86.400 54.132,85.759 54.462,85.100 55.287 M76.979 61.966 C 77.103 62.167,76.979 62.423,76.702 62.534 C 76.389 62.660,76.370 62.749,76.651 62.768 C 76.899 62.786,77.326 62.530,77.600 62.200 C 78.009 61.707,77.978 61.600,77.425 61.600 C 77.055 61.600,76.855 61.765,76.979 61.966 M72.400 66.600 C 71.428 67.590,70.766 68.400,70.927 68.400 C 71.089 68.400,72.031 67.590,73.021 66.600 C 74.011 65.610,74.674 64.800,74.494 64.800 C 74.314 64.800,73.372 65.610,72.400 66.600 M55.802 84.798 C 55.403 85.239,55.207 85.600,55.367 85.600 C 55.788 85.600,56.928 84.395,56.712 84.179 C 56.611 84.078,56.202 84.356,55.802 84.798 M201.068 201.066 C 200.501 201.632,200.760 381.469,201.328 381.940 C 201.893 382.409,212.255 381.975,219.600 381.175 C 299.030 372.523,364.554 311.987,379.553 233.400 C 381.399 223.730,383.092 207.457,382.737 202.800 L 382.600 201.000 291.968 200.899 C 242.120 200.844,201.215 200.919,201.068 201.066 M293.486 241.799 C 312.709 244.339,327.028 252.399,336.480 266.000 C 340.533 271.832,340.648 272.655,337.632 274.184 C 334.929 275.554,334.648 275.495,333.371 273.300 C 329.519 266.680,322.537 259.572,316.341 255.962 C 297.819 245.172,272.911 244.224,253.353 253.567 C 244.143 257.967,236.119 265.187,231.424 273.300 C 230.311 275.223,229.539 275.581,228.095 274.847 C 227.713 274.652,226.915 274.267,226.321 273.990 C 221.367 271.681,236.226 254.804,248.600 248.685 C 256.988 244.538,261.333 243.262,272.600 241.642 C 276.609 241.065,288.616 241.156,293.486 241.799 M284.720 250.080 C 285.060 250.420,285.200 252.791,285.200 258.200 C 285.200 266.718,285.175 266.800,282.600 266.800 C 280.029 266.800,280.000 266.705,280.000 258.349 C 280.000 252.072,280.102 250.755,280.629 250.229 C 281.369 249.488,284.031 249.391,284.720 250.080 M260.447 254.805 C 262.551 259.334,265.667 268.438,265.274 268.910 C 263.376 271.198,261.256 270.544,260.001 267.284 C 259.518 266.028,258.975 264.640,258.794 264.200 C 255.267 255.587,255.149 254.776,257.285 253.835 C 259.123 253.026,259.702 253.204,260.447 254.805 M306.551 253.805 C 308.236 254.509,308.328 255.058,307.232 257.847 C 306.810 258.921,305.685 261.823,304.732 264.296 C 303.780 266.769,302.722 269.163,302.382 269.617 L 301.765 270.442 299.834 269.614 C 297.651 268.679,297.583 268.184,299.156 264.729 C 299.856 263.190,300.424 261.748,302.668 255.800 C 303.727 252.993,304.122 252.790,306.551 253.805 M315.320 258.652 C 319.324 260.691,327.088 267.899,329.575 271.885 C 331.110 274.346,331.068 274.385,319.960 280.861 C 316.613 282.812,316.724 282.829,314.853 280.100 C 312.826 277.144,310.320 274.754,307.800 273.374 C 305.105 271.898,305.056 271.745,306.469 269.208 C 309.348 264.037,311.275 260.516,311.890 259.300 C 312.633 257.832,313.419 257.684,315.320 258.652 M295.520 268.080 C 296.258 268.818,296.096 270.241,295.000 272.637 C 294.450 273.840,294.000 274.910,294.000 275.016 C 294.000 275.122,293.659 275.972,293.242 276.904 C 289.959 284.252,288.353 289.214,288.831 290.536 C 290.281 294.544,286.610 298.753,282.046 298.314 C 275.617 297.696,274.273 290.136,280.000 286.804 C 281.872 285.714,281.858 285.734,289.200 274.333 C 293.490 267.672,294.305 266.865,295.520 268.080 M244.924 272.700 C 252.155 277.582,252.059 277.466,250.641 279.610 C 249.282 281.664,249.263 281.660,244.796 278.593 C 242.708 277.159,239.785 275.170,238.300 274.174 C 235.265 272.136,235.201 271.973,236.614 269.893 C 237.966 267.903,237.670 267.803,244.924 272.700 M227.323 275.348 C 228.245 275.870,230.530 277.192,232.400 278.288 C 235.887 280.329,240.896 283.238,247.600 287.115 C 249.690 288.323,252.293 289.872,253.384 290.556 C 254.475 291.240,255.718 291.980,256.145 292.200 C 257.720 293.011,257.863 293.846,256.777 295.894 C 255.373 298.540,254.763 298.513,249.951 295.590 C 247.720 294.234,245.063 292.666,244.047 292.104 C 242.162 291.061,238.372 288.840,231.600 284.806 C 229.510 283.561,226.786 281.969,225.547 281.269 C 222.233 279.395,222.140 279.211,223.199 276.602 C 224.232 274.058,224.758 273.898,227.323 275.348 M341.079 275.300 C 343.280 278.219,342.685 279.750,338.453 282.067 C 336.774 282.986,333.150 285.036,330.400 286.623 C 327.650 288.210,323.960 290.271,322.200 291.205 C 320.440 292.138,317.560 293.763,315.800 294.817 C 309.324 298.693,309.431 298.687,307.591 295.318 C 306.571 293.449,306.753 292.901,308.742 291.866 C 309.324 291.563,312.320 289.878,315.400 288.121 C 318.480 286.364,324.330 283.067,328.400 280.794 C 332.470 278.521,336.520 276.244,337.400 275.734 C 339.181 274.703,340.510 274.546,341.079 275.300 " stroke="none" fill="#faea3b" fill-rule="evenodd"></path><path id="path4" d="M191.000 15.546 C 190.560 15.686,192.450 15.890,195.200 16.000 L 200.200 16.200 200.200 108.400 L 200.200 200.600 108.100 200.701 L 16.000 200.802 16.000 205.587 C 16.000 225.748,22.020 252.453,31.041 272.312 C 31.568 273.473,32.000 274.515,32.000 274.626 C 32.000 275.177,37.314 285.613,39.894 290.129 C 63.275 331.054,102.275 361.972,147.200 375.200 C 148.850 375.686,150.650 376.227,151.200 376.403 C 151.750 376.579,153.100 376.932,154.200 377.187 C 155.300 377.442,156.830 377.811,157.600 378.006 C 158.370 378.202,159.540 378.470,160.200 378.603 C 160.860 378.735,162.120 378.997,163.000 379.184 C 171.395 380.976,182.407 382.301,191.437 382.606 C 195.157 382.732,199.246 383.034,200.525 383.277 C 203.750 383.891,216.787 383.044,227.000 381.558 C 298.932 371.085,358.830 317.808,377.830 247.400 C 382.144 231.416,385.786 201.200,383.400 201.200 C 382.929 201.200,382.800 201.753,382.800 203.778 C 382.800 210.516,381.288 224.309,379.553 233.400 C 364.554 311.987,299.030 372.523,219.600 381.175 C 212.264 381.974,201.893 382.409,201.329 381.941 C 200.699 381.419,200.541 17.831,201.170 16.835 C 202.066 15.418,194.450 14.453,191.000 15.546 M180.200 16.400 C 180.047 16.648,180.788 16.800,182.153 16.800 C 183.363 16.800,184.464 16.620,184.600 16.400 C 184.753 16.152,184.012 16.000,182.647 16.000 C 181.437 16.000,180.336 16.180,180.200 16.400 M174.400 17.200 C 175.198 17.716,177.319 17.716,177.000 17.200 C 176.864 16.980,176.088 16.803,175.276 16.806 C 174.176 16.811,173.953 16.911,174.400 17.200 M170.000 18.000 C 170.000 18.220,170.360 18.400,170.800 18.400 C 171.240 18.400,171.600 18.220,171.600 18.000 C 171.600 17.780,171.240 17.600,170.800 17.600 C 170.360 17.600,170.000 17.780,170.000 18.000 M165.600 18.800 C 165.600 19.020,165.971 19.200,166.424 19.200 C 166.877 19.200,167.136 19.020,167.000 18.800 C 166.864 18.580,166.493 18.400,166.176 18.400 C 165.859 18.400,165.600 18.580,165.600 18.800 M162.000 19.600 C 162.000 19.820,162.270 20.000,162.600 20.000 C 162.930 20.000,163.200 19.820,163.200 19.600 C 163.200 19.380,162.930 19.200,162.600 19.200 C 162.270 19.200,162.000 19.380,162.000 19.600 M152.400 22.000 C 152.400 22.220,152.670 22.400,153.000 22.400 C 153.330 22.400,153.600 22.220,153.600 22.000 C 153.600 21.780,153.330 21.600,153.000 21.600 C 152.670 21.600,152.400 21.780,152.400 22.000 M149.200 22.800 C 149.200 23.020,149.459 23.200,149.776 23.200 C 150.093 23.200,150.464 23.020,150.600 22.800 C 150.736 22.580,150.477 22.400,150.024 22.400 C 149.571 22.400,149.200 22.580,149.200 22.800 M146.900 23.087 C 146.111 23.370,146.318 24.000,147.200 24.000 C 147.640 24.000,148.000 23.831,148.000 23.624 C 148.000 23.112,147.505 22.870,146.900 23.087 M144.500 23.887 C 143.813 24.134,143.869 24.800,144.576 24.800 C 145.239 24.800,145.763 24.140,145.307 23.882 C 145.138 23.786,144.775 23.789,144.500 23.887 M141.600 25.200 C 141.600 25.420,141.870 25.600,142.200 25.600 C 142.530 25.600,142.800 25.420,142.800 25.200 C 142.800 24.980,142.530 24.800,142.200 24.800 C 141.870 24.800,141.600 24.980,141.600 25.200 M132.254 28.602 C 131.624 28.931,130.876 29.200,130.592 29.200 C 130.308 29.200,129.384 29.545,128.538 29.967 C 127.692 30.389,126.659 30.843,126.243 30.976 C 125.826 31.110,125.582 31.315,125.699 31.433 C 125.902 31.635,130.208 30.025,131.695 29.190 C 132.077 28.975,132.651 28.800,132.971 28.800 C 133.291 28.800,133.664 28.620,133.800 28.400 C 134.150 27.834,133.586 27.908,132.254 28.602 M121.800 32.800 C 121.664 33.020,121.923 33.200,122.376 33.200 C 122.829 33.200,123.200 33.020,123.200 32.800 C 123.200 32.580,122.941 32.400,122.624 32.400 C 122.307 32.400,121.936 32.580,121.800 32.800 M120.000 33.600 C 120.000 33.820,120.270 34.000,120.600 34.000 C 120.930 34.000,121.200 33.820,121.200 33.600 C 121.200 33.380,120.930 33.200,120.600 33.200 C 120.270 33.200,120.000 33.380,120.000 33.600 M103.830 42.824 C 102.833 43.829,103.506 43.812,104.800 42.800 C 105.448 42.293,105.589 42.023,105.200 42.033 C 104.870 42.041,104.254 42.397,103.830 42.824 M100.282 45.000 C 99.273 45.770,98.207 46.400,97.912 46.400 C 97.618 46.400,97.124 46.750,96.815 47.179 C 96.507 47.607,96.127 47.879,95.972 47.783 C 95.817 47.687,95.470 47.875,95.200 48.200 C 94.930 48.525,94.570 48.705,94.400 48.600 C 94.230 48.495,93.868 48.677,93.596 49.004 C 93.324 49.332,92.809 49.605,92.451 49.612 C 91.864 49.623,91.866 49.663,92.473 50.017 C 93.002 50.326,94.083 49.769,97.541 47.405 C 99.959 45.752,102.131 44.400,102.368 44.400 C 102.606 44.400,102.800 44.220,102.800 44.000 C 102.800 43.307,102.172 43.557,100.282 45.000 M92.000 50.800 C 92.000 51.020,91.539 51.200,90.976 51.200 C 90.396 51.200,90.060 51.373,90.200 51.600 C 90.336 51.820,90.597 52.000,90.779 52.000 C 91.333 52.000,93.038 50.428,92.500 50.413 C 92.225 50.406,92.000 50.580,92.000 50.800 M89.227 52.762 C 88.925 53.181,88.165 53.627,87.539 53.752 C 86.913 53.877,86.400 54.188,86.400 54.443 C 86.400 54.698,86.011 55.243,85.536 55.656 C 85.061 56.068,84.762 56.496,84.873 56.606 C 84.983 56.717,85.600 56.311,86.244 55.704 C 86.887 55.097,88.084 54.150,88.904 53.600 C 89.724 53.050,90.396 52.465,90.397 52.300 C 90.402 51.747,89.782 51.992,89.227 52.762 M84.000 56.400 C 84.000 56.620,83.640 56.800,83.200 56.800 C 82.667 56.800,82.400 57.067,82.400 57.600 C 82.400 58.424,82.979 58.681,83.379 58.034 C 83.503 57.833,83.379 57.565,83.102 57.438 C 82.826 57.311,83.005 57.308,83.500 57.431 C 84.215 57.608,84.400 57.484,84.400 56.827 C 84.400 56.372,84.310 56.000,84.200 56.000 C 84.090 56.000,84.000 56.180,84.000 56.400 M80.800 59.200 C 80.790 59.993,80.708 60.076,80.400 59.600 C 80.142 59.200,80.010 59.167,80.006 59.500 C 80.003 59.775,79.758 60.000,79.462 60.000 C 78.931 60.000,77.400 61.442,77.400 61.942 C 77.400 62.084,77.252 62.151,77.070 62.090 C 76.889 62.030,76.855 62.165,76.994 62.390 C 77.139 62.624,76.851 62.803,76.324 62.806 C 75.581 62.811,75.517 62.888,76.000 63.200 C 76.477 63.508,76.394 63.592,75.600 63.606 C 74.696 63.623,74.670 63.665,75.336 64.052 C 75.926 64.395,76.285 64.284,77.136 63.498 C 77.721 62.957,78.960 61.814,79.888 60.957 C 81.168 59.776,81.484 59.255,81.194 58.800 C 80.893 58.326,80.810 58.411,80.800 59.200 M74.400 64.800 C 75.176 65.301,75.600 65.301,75.600 64.800 C 75.600 64.580,75.195 64.403,74.700 64.406 C 73.972 64.411,73.915 64.486,74.400 64.800 M72.800 66.800 C 72.030 67.660,71.040 68.386,70.600 68.413 C 70.160 68.441,70.023 68.553,70.296 68.664 C 70.985 68.942,69.910 69.998,68.929 70.006 C 68.470 70.010,68.369 70.121,68.656 70.306 C 68.989 70.521,68.970 70.732,68.585 71.088 C 68.171 71.473,68.017 71.473,67.861 71.088 C 67.752 70.820,67.649 70.928,67.632 71.329 C 67.588 72.325,66.538 73.375,66.264 72.696 C 66.153 72.423,66.049 72.590,66.032 73.067 C 66.014 73.543,65.775 74.014,65.500 74.112 C 65.225 74.210,65.099 74.399,65.220 74.532 C 65.341 74.664,67.588 72.619,70.214 69.986 C 72.839 67.354,74.810 65.208,74.594 65.218 C 74.377 65.229,73.570 65.940,72.800 66.800 M64.406 74.700 C 64.403 75.195,64.580 75.600,64.800 75.600 C 65.301 75.600,65.301 75.176,64.800 74.400 C 64.486 73.915,64.411 73.972,64.406 74.700 M63.400 75.346 C 62.156 76.789,61.808 77.349,62.362 77.015 C 62.743 76.785,62.832 76.825,62.638 77.138 C 62.481 77.392,62.098 77.600,61.786 77.600 C 61.474 77.600,60.904 78.095,60.520 78.700 C 60.135 79.305,59.473 80.115,59.049 80.500 C 58.625 80.885,58.485 81.200,58.739 81.200 C 59.470 81.200,59.808 81.024,59.700 80.700 C 59.645 80.535,59.788 80.400,60.018 80.400 C 60.248 80.400,60.833 79.983,61.318 79.473 C 64.189 76.456,64.471 76.056,64.140 75.477 C 63.886 75.033,63.699 75.000,63.400 75.346 M58.000 82.000 C 58.776 82.501,59.200 82.501,59.200 82.000 C 59.200 81.780,58.795 81.603,58.300 81.606 C 57.572 81.611,57.515 81.686,58.000 82.000 M57.300 82.665 C 56.796 82.868,56.580 84.400,57.056 84.400 C 57.366 84.400,58.370 83.119,58.387 82.700 C 58.401 82.369,58.061 82.358,57.300 82.665 M56.000 85.200 C 56.000 85.420,55.640 85.600,55.200 85.600 C 54.700 85.600,54.400 85.867,54.400 86.312 C 54.400 86.703,54.044 87.280,53.609 87.594 C 53.027 88.013,52.948 88.246,53.309 88.476 C 53.628 88.679,53.485 88.790,52.900 88.794 C 52.337 88.798,52.000 89.044,52.000 89.453 C 52.000 89.812,51.676 90.397,51.281 90.753 C 50.886 91.109,50.129 92.030,49.600 92.800 C 49.071 93.570,48.528 94.290,48.393 94.400 C 47.795 94.887,45.467 98.588,45.467 99.051 C 45.467 99.334,45.331 99.481,45.165 99.378 C 44.999 99.276,44.612 99.688,44.305 100.296 C 43.362 102.163,42.616 103.389,42.266 103.644 C 42.083 103.779,42.235 104.004,42.603 104.146 C 43.067 104.324,43.339 104.156,43.484 103.602 C 43.599 103.161,43.852 102.800,44.047 102.800 C 44.241 102.800,44.400 102.618,44.400 102.395 C 44.400 101.974,47.843 96.578,48.674 95.698 C 48.934 95.421,49.262 94.836,49.401 94.398 C 49.540 93.959,49.779 93.600,49.933 93.600 C 50.086 93.600,50.656 92.880,51.200 92.000 C 51.744 91.120,52.346 90.400,52.537 90.400 C 52.729 90.400,52.778 90.121,52.647 89.779 C 52.516 89.438,52.579 89.264,52.787 89.392 C 52.995 89.520,53.484 89.125,53.873 88.513 C 54.263 87.901,54.744 87.285,54.942 87.145 C 55.140 87.004,55.180 86.691,55.030 86.449 C 54.871 86.191,54.973 86.092,55.280 86.209 C 55.567 86.319,56.028 86.047,56.304 85.605 C 56.601 85.129,56.642 84.800,56.403 84.800 C 56.182 84.800,56.000 84.980,56.000 85.200 M41.305 105.508 C 40.813 106.108,40.408 106.825,40.405 107.100 C 40.402 107.375,40.220 107.600,40.000 107.600 C 39.780 107.600,39.600 107.960,39.600 108.400 C 39.600 108.840,39.420 109.200,39.200 109.200 C 38.980 109.200,38.800 109.560,38.800 110.000 C 38.800 110.440,38.662 110.800,38.494 110.800 C 38.326 110.800,37.836 111.565,37.405 112.500 C 36.974 113.435,36.557 114.335,36.477 114.500 C 36.398 114.665,36.528 114.800,36.767 114.800 C 37.005 114.800,37.200 114.530,37.200 114.200 C 37.200 113.870,37.380 113.600,37.600 113.600 C 37.820 113.600,38.000 113.330,38.000 113.000 C 38.000 112.670,38.180 112.400,38.400 112.400 C 38.620 112.400,38.800 112.040,38.800 111.600 C 38.800 111.160,38.959 110.800,39.153 110.800 C 39.348 110.800,39.607 110.485,39.729 110.100 C 40.014 109.202,41.295 107.077,41.751 106.745 C 41.944 106.604,41.990 106.308,41.854 106.087 C 41.717 105.865,41.874 105.581,42.202 105.454 C 42.531 105.328,42.800 105.039,42.800 104.813 C 42.800 104.108,42.238 104.370,41.305 105.508 M35.600 115.800 C 35.600 116.130,35.780 116.400,36.000 116.400 C 36.220 116.400,36.400 116.130,36.400 115.800 C 36.400 115.470,36.220 115.200,36.000 115.200 C 35.780 115.200,35.600 115.470,35.600 115.800 M34.800 117.400 C 34.800 117.730,34.980 118.000,35.200 118.000 C 35.420 118.000,35.600 117.730,35.600 117.400 C 35.600 117.070,35.420 116.800,35.200 116.800 C 34.980 116.800,34.800 117.070,34.800 117.400 M34.000 119.000 C 34.000 119.330,34.180 119.600,34.400 119.600 C 34.620 119.600,34.800 119.330,34.800 119.000 C 34.800 118.670,34.620 118.400,34.400 118.400 C 34.180 118.400,34.000 118.670,34.000 119.000 M33.200 120.600 C 33.200 120.930,33.380 121.200,33.600 121.200 C 33.820 121.200,34.000 120.930,34.000 120.600 C 34.000 120.270,33.820 120.000,33.600 120.000 C 33.380 120.000,33.200 120.270,33.200 120.600 M32.023 123.400 C 31.511 124.500,30.577 126.467,29.946 127.771 C 29.316 129.075,28.800 130.382,28.800 130.676 C 28.800 130.970,28.641 131.523,28.447 131.905 C 28.252 132.287,27.871 133.140,27.600 133.800 C 27.329 134.460,26.948 135.313,26.753 135.695 C 26.559 136.077,26.400 136.741,26.400 137.171 C 26.400 137.601,26.220 138.064,26.000 138.200 C 25.780 138.336,25.600 138.876,25.600 139.400 C 25.600 139.924,25.420 140.464,25.200 140.600 C 24.980 140.736,24.800 141.276,24.800 141.800 C 24.800 142.324,24.620 142.864,24.400 143.000 C 24.180 143.136,24.000 143.687,24.000 144.224 C 24.000 144.761,24.180 145.200,24.400 145.200 C 24.620 145.200,24.800 144.660,24.800 144.000 C 24.800 143.340,24.980 142.800,25.200 142.800 C 25.420 142.800,25.600 142.260,25.600 141.600 C 25.600 140.940,25.780 140.400,26.000 140.400 C 26.220 140.400,26.400 139.860,26.400 139.200 C 26.400 138.540,26.580 138.000,26.800 138.000 C 27.020 138.000,27.200 137.638,27.200 137.195 C 27.200 136.752,27.359 136.077,27.553 135.695 C 27.748 135.313,28.086 134.550,28.305 134.000 C 28.842 132.655,30.026 129.588,30.391 128.600 C 30.554 128.160,31.072 127.018,31.543 126.062 C 32.014 125.106,32.400 124.086,32.400 123.796 C 32.400 123.505,32.601 123.200,32.846 123.118 C 33.091 123.036,33.215 122.616,33.122 122.185 C 32.994 121.592,32.726 121.889,32.023 123.400 M23.200 147.000 C 23.200 147.550,23.380 148.000,23.600 148.000 C 23.820 148.000,24.000 147.550,24.000 147.000 C 24.000 146.450,23.820 146.000,23.600 146.000 C 23.380 146.000,23.200 146.450,23.200 147.000 M22.400 149.400 C 22.400 149.950,22.580 150.400,22.800 150.400 C 23.020 150.400,23.200 149.950,23.200 149.400 C 23.200 148.850,23.020 148.400,22.800 148.400 C 22.580 148.400,22.400 148.850,22.400 149.400 M21.867 151.467 C 21.448 151.885,21.555 153.600,22.000 153.600 C 22.220 153.600,22.400 153.060,22.400 152.400 C 22.400 151.157,22.319 151.015,21.867 151.467 M21.067 154.667 C 20.652 155.082,20.753 156.400,21.200 156.400 C 21.420 156.400,21.600 155.950,21.600 155.400 C 21.600 154.353,21.508 154.226,21.067 154.667 M20.267 157.867 C 19.852 158.282,19.953 159.600,20.400 159.600 C 20.620 159.600,20.800 159.150,20.800 158.600 C 20.800 157.553,20.708 157.426,20.267 157.867 M19.412 162.117 C 19.241 162.512,19.213 162.947,19.351 163.084 C 19.757 163.490,20.084 162.920,19.897 162.131 C 19.732 161.433,19.710 161.432,19.412 162.117 M18.612 166.117 C 18.441 166.512,18.413 166.947,18.551 167.084 C 18.957 167.490,19.284 166.920,19.097 166.131 C 18.932 165.433,18.910 165.432,18.612 166.117 M17.892 170.642 C 17.731 170.802,17.600 171.209,17.600 171.547 C 17.600 171.997,17.718 172.042,18.045 171.715 C 18.290 171.470,18.421 171.063,18.337 170.810 C 18.252 170.557,18.052 170.481,17.892 170.642 M96.069 223.462 C 96.659 223.997,96.800 224.730,96.800 227.276 L 96.800 230.429 100.700 230.314 L 104.600 230.200 104.718 227.019 C 104.864 223.107,105.097 222.800,107.917 222.800 C 111.218 222.800,111.600 223.306,111.600 227.671 C 111.600 231.662,111.414 231.429,115.400 232.441 C 121.980 234.112,122.139 234.321,121.269 240.129 C 121.011 241.850,120.800 244.310,120.800 245.596 C 120.800 248.836,120.599 249.200,118.804 249.200 C 117.007 249.200,116.814 248.763,116.805 244.687 C 116.799 241.347,116.055 239.465,114.324 238.410 C 111.451 236.659,111.577 236.073,111.695 250.661 L 111.800 263.721 114.600 264.389 C 119.656 265.596,122.836 268.032,124.990 272.348 C 126.346 275.065,126.401 274.887,121.765 282.800 C 116.862 291.170,116.768 291.332,113.791 296.600 C 112.424 299.020,110.200 302.890,108.849 305.200 C 107.499 307.510,106.247 309.659,106.068 309.976 C 105.217 311.484,104.800 310.815,104.794 307.933 C 104.785 303.908,104.875 303.980,100.598 304.545 L 97.000 305.021 96.881 307.992 C 96.725 311.871,96.540 312.060,93.038 311.916 L 90.200 311.800 90.098 309.000 C 89.955 305.067,89.752 304.401,88.692 304.393 C 86.470 304.376,77.205 301.932,76.077 301.066 C 75.560 300.669,75.636 294.651,76.247 287.679 L 76.468 285.157 78.134 285.279 L 79.800 285.400 80.000 289.401 C 80.274 294.880,81.604 296.484,87.634 298.612 C 90.050 299.464,89.988 299.830,89.988 284.800 C 89.988 269.517,90.251 270.640,86.425 269.580 C 69.996 265.027,70.728 240.485,87.513 233.115 C 89.984 232.030,89.987 232.024,89.994 227.580 C 89.998 225.150,90.175 223.585,90.480 223.280 C 91.218 222.542,95.195 222.672,96.069 223.462 M97.067 235.467 C 96.920 235.613,96.800 241.547,96.800 248.653 C 96.800 263.580,96.352 262.234,101.400 262.458 L 104.600 262.600 104.706 249.448 C 104.781 240.075,104.680 236.138,104.357 235.748 C 103.881 235.175,97.601 234.933,97.067 235.467 M87.933 239.537 C 82.297 244.485,82.420 254.683,88.169 259.121 C 89.912 260.466,89.988 260.051,89.988 249.200 C 89.988 238.126,89.917 237.795,87.933 239.537 M272.600 241.642 C 261.333 243.262,256.988 244.538,248.600 248.685 C 239.631 253.120,230.480 261.775,226.065 269.999 C 224.676 272.587,224.718 273.243,226.321 273.990 C 226.915 274.267,227.713 274.652,228.095 274.847 C 229.539 275.581,230.311 275.223,231.424 273.300 C 242.188 254.699,266.093 244.604,291.800 247.804 C 300.808 248.925,308.851 251.599,316.341 255.962 C 322.537 259.572,329.519 266.680,333.371 273.300 C 334.648 275.495,334.929 275.554,337.632 274.184 C 340.116 272.925,340.279 272.517,339.171 270.339 C 332.632 257.485,317.936 246.896,301.486 243.185 C 293.361 241.352,279.693 240.622,272.600 241.642 M291.404 242.189 C 312.492 244.545,328.630 253.739,337.318 268.345 C 339.640 272.249,339.642 272.485,337.350 273.766 C 334.968 275.097,334.968 275.097,333.970 273.142 C 320.526 246.789,275.087 238.091,246.953 256.483 C 240.544 260.673,233.233 268.238,230.956 273.036 C 230.075 274.892,229.620 275.030,227.666 274.034 C 225.451 272.904,225.414 272.746,226.749 270.100 C 236.544 250.698,263.481 239.069,291.404 242.189 M280.629 250.229 C 280.102 250.755,280.000 252.072,280.000 258.349 C 280.000 266.705,280.029 266.800,282.600 266.800 C 285.175 266.800,285.200 266.718,285.200 258.200 C 285.200 252.791,285.060 250.420,284.720 250.080 C 284.031 249.391,281.369 249.488,280.629 250.229 M283.909 250.335 C 284.298 250.582,284.392 252.479,284.309 258.424 C 284.190 266.921,284.215 266.842,281.768 266.228 L 280.800 265.985 280.800 258.226 C 280.800 252.393,280.924 250.417,281.300 250.265 C 282.086 249.948,283.352 249.982,283.909 250.335 M257.285 253.835 C 255.149 254.776,255.267 255.587,258.794 264.200 C 258.975 264.640,259.518 266.028,260.001 267.284 C 261.154 270.280,261.572 270.607,263.406 269.943 C 265.908 269.039,265.908 268.955,263.396 262.300 C 259.724 252.568,259.829 252.714,257.285 253.835 M303.685 253.700 C 303.457 253.975,303.000 254.920,302.668 255.800 C 300.424 261.748,299.856 263.190,299.156 264.729 C 297.583 268.184,297.651 268.679,299.834 269.614 L 301.765 270.442 302.382 269.617 C 302.722 269.163,303.780 266.769,304.732 264.296 C 305.685 261.823,306.810 258.921,307.232 257.847 C 308.328 255.058,308.236 254.509,306.551 253.805 C 304.790 253.069,304.223 253.049,303.685 253.700 M262.127 260.705 C 265.253 268.547,265.259 268.586,263.363 269.212 C 261.547 269.811,261.764 270.120,258.859 262.800 C 256.137 255.945,255.983 255.123,257.300 254.488 C 259.214 253.565,259.350 253.740,262.127 260.705 M306.724 254.700 C 307.534 255.399,307.532 255.410,305.761 260.000 C 301.743 270.414,301.990 270.029,299.980 268.990 C 298.422 268.184,298.400 268.311,301.434 260.650 C 304.276 253.473,304.720 252.973,306.724 254.700 M311.890 259.300 C 311.275 260.516,309.348 264.037,306.469 269.208 C 305.056 271.745,305.105 271.898,307.800 273.374 C 310.320 274.754,312.826 277.144,314.853 280.100 C 316.900 283.086,316.178 283.272,326.000 277.231 C 331.720 273.712,331.703 273.450,325.290 266.734 C 318.414 259.532,313.229 256.655,311.890 259.300 M317.365 260.705 C 323.215 264.585,330.777 273.011,329.516 274.244 C 329.080 274.670,319.576 280.531,317.538 281.631 C 317.011 281.915,316.619 281.588,315.621 280.033 C 314.088 277.643,311.221 274.915,308.237 273.007 C 307.007 272.219,306.000 271.461,306.000 271.322 C 306.000 271.020,312.339 259.631,312.924 258.882 C 313.440 258.221,313.911 258.414,317.365 260.705 M293.375 268.327 C 292.949 268.727,291.070 271.430,289.200 274.333 C 281.858 285.734,281.872 285.714,280.000 286.804 C 274.273 290.136,275.617 297.696,282.046 298.314 C 286.610 298.753,290.281 294.544,288.831 290.536 C 288.353 289.214,289.959 284.252,293.242 276.904 C 293.659 275.972,294.000 275.122,294.000 275.016 C 294.000 274.910,294.450 273.840,295.000 272.637 C 296.746 268.820,295.729 266.121,293.375 268.327 M236.614 269.893 C 235.201 271.973,235.265 272.136,238.300 274.174 C 239.785 275.170,242.708 277.159,244.796 278.593 C 249.263 281.660,249.282 281.664,250.641 279.610 C 252.059 277.466,252.155 277.582,244.924 272.700 C 237.670 267.803,237.966 267.903,236.614 269.893 M295.437 268.953 C 295.554 269.258,293.854 273.965,291.658 279.415 C 288.398 287.507,287.734 289.500,288.033 290.287 C 290.549 296.906,280.615 300.981,277.516 294.602 C 276.047 291.579,277.222 289.018,281.187 286.600 C 282.097 286.045,284.079 283.350,287.657 277.800 C 294.096 267.814,294.726 267.098,295.437 268.953 M244.687 273.258 C 251.034 277.472,251.357 277.852,250.042 279.562 C 249.109 280.777,249.271 280.847,242.235 276.189 C 235.995 272.059,236.048 272.119,237.086 270.362 C 238.023 268.776,237.818 268.698,244.687 273.258 M97.067 271.467 C 96.920 271.613,96.800 278.093,96.800 285.867 L 96.800 300.000 99.911 300.000 C 105.160 300.000,104.801 301.039,104.794 285.877 C 104.791 278.795,104.656 272.792,104.494 272.539 C 103.978 271.729,97.709 270.824,97.067 271.467 M157.681 272.590 C 166.052 274.191,175.009 279.723,177.841 285.040 L 178.600 286.464 177.511 287.332 C 176.912 287.810,175.532 288.697,174.445 289.304 L 172.469 290.407 169.675 287.647 C 162.561 280.617,152.935 278.155,142.400 280.671 C 135.354 282.354,127.256 289.425,125.418 295.500 L 125.146 296.400 145.673 296.406 C 156.963 296.409,166.438 296.563,166.730 296.748 C 167.424 297.188,166.483 299.553,165.040 300.996 L 164.036 302.000 144.061 302.000 C 121.924 302.000,123.600 301.782,123.600 304.659 C 123.600 307.815,122.212 307.600,142.590 307.600 C 162.592 307.600,161.690 307.460,160.233 310.335 C 158.906 312.953,160.053 312.800,141.791 312.800 C 132.912 312.800,125.557 312.946,125.447 313.124 C 125.337 313.302,125.781 314.507,126.435 315.802 C 134.302 331.399,155.895 334.644,169.107 322.215 C 170.869 320.557,172.424 319.200,172.561 319.200 C 173.200 319.200,178.400 322.979,178.400 323.444 C 178.400 324.417,174.992 328.182,172.184 330.311 C 167.527 333.843,164.401 335.126,155.494 337.164 C 153.215 337.686,146.365 337.736,144.400 337.246 C 143.630 337.054,141.920 336.663,140.600 336.376 C 129.599 333.987,120.970 326.130,116.685 314.600 C 116.174 313.227,115.884 312.966,114.640 312.762 C 112.617 312.430,112.570 312.284,113.800 310.121 C 114.400 309.064,115.347 307.390,115.905 306.400 C 116.462 305.410,117.768 303.160,118.807 301.400 C 119.847 299.640,123.083 294.060,125.999 289.000 C 128.915 283.940,131.871 278.812,132.568 277.603 C 135.164 273.104,147.498 270.641,157.681 272.590 M111.600 284.933 C 111.600 296.962,111.494 296.529,113.835 294.065 C 118.440 289.217,118.611 280.449,114.192 275.764 C 111.631 273.049,111.600 273.160,111.600 284.933 M223.199 276.602 C 222.140 279.211,222.233 279.395,225.547 281.269 C 226.786 281.969,229.510 283.561,231.600 284.806 C 238.372 288.840,242.162 291.061,244.047 292.104 C 245.063 292.666,247.720 294.234,249.951 295.590 C 254.763 298.513,255.373 298.540,256.777 295.894 C 257.863 293.846,257.720 293.011,256.145 292.200 C 255.718 291.980,254.475 291.240,253.384 290.556 C 252.293 289.872,249.690 288.323,247.600 287.115 C 240.896 283.238,235.887 280.329,232.400 278.288 C 224.153 273.458,224.453 273.513,223.199 276.602 M230.541 277.865 C 233.433 279.551,238.770 282.677,242.400 284.811 C 246.030 286.946,250.845 289.745,253.100 291.031 C 257.684 293.647,257.579 293.482,256.183 295.865 C 254.942 297.983,255.150 297.983,251.551 295.856 C 249.928 294.896,245.270 292.169,241.200 289.794 C 237.130 287.420,232.211 284.515,230.268 283.339 C 228.325 282.162,226.648 281.200,226.540 281.200 C 226.432 281.200,225.557 280.659,224.596 279.997 L 222.847 278.794 223.677 276.797 C 224.716 274.296,224.307 274.232,230.541 277.865 M337.400 275.734 C 336.520 276.244,332.470 278.521,328.400 280.794 C 324.330 283.067,318.480 286.364,315.400 288.121 C 312.320 289.878,309.324 291.563,308.742 291.866 C 306.753 292.901,306.571 293.449,307.591 295.318 C 309.431 298.687,309.324 298.693,315.800 294.817 C 317.560 293.763,320.440 292.138,322.200 291.205 C 323.960 290.271,327.650 288.210,330.400 286.623 C 333.150 285.036,336.774 282.986,338.453 282.067 C 342.467 279.870,342.660 279.620,341.988 277.487 C 341.032 274.455,340.175 274.127,337.400 275.734 M341.043 276.641 C 342.013 278.964,341.689 279.625,338.800 281.224 C 337.370 282.015,335.480 283.070,334.600 283.568 C 333.720 284.066,329.130 286.649,324.400 289.308 C 319.670 291.967,314.458 294.908,312.818 295.844 C 309.424 297.780,309.513 297.792,308.224 295.248 L 307.264 293.353 308.132 292.809 C 308.609 292.510,309.990 291.731,311.200 291.077 C 313.400 289.888,324.975 283.392,334.400 278.057 C 340.223 274.761,340.254 274.754,341.043 276.641 " stroke="none" fill="#8cc34b" fill-rule="evenodd"></path></g></svg>